<svg width="927" height="399" viewBox="0 0 927 399" fill="none" xmlns="http://www.w3.org/2000/svg">
<path d="M452.868 0L414.312 25.0437L401.574 33.1139L391.043 39.903L375.757 50.0867L298.646 100.173L310.212 115.585L452.868 23.1169L595.523 115.585L607.089 100.173L452.868 0Z" fill="#FBFBFF"/>
<path fill-rule="evenodd" clip-rule="evenodd" d="M452.868 37.8662L337.201 114.923V136.987H402.253H461.7H511.635H568.534V114.923L452.868 37.8662ZM435.203 79.6192H450.15V94.5553H435.203V79.6192ZM470.532 79.6192H455.585V94.5553H470.532V79.6192ZM455.585 100.665H470.532V115.602H455.585V100.665ZM450.15 100.665H435.203V115.602H450.15V100.665Z" fill="#FBFBFF"/>
<path d="M474.823 321.943L472.887 320.944C472.049 320.512 471.046 319.4 470.694 318.516L469.258 314.907C469.009 314.284 468.53 313.721 467.944 313.325H471.575C473.016 313.325 474.143 312.165 474.143 310.704V307.723C474.143 306.261 473.016 305 471.575 305H432.728C431.287 305 430 306.261 430 307.723V332.571C430 333.992 431.254 335.127 432.654 335.127H436.172C436.218 338.299 438.824 340.982 442.023 340.982C445.223 340.982 447.83 338.299 447.875 335.127H459.406C459.452 338.299 462.058 340.982 465.258 340.982C468.458 340.982 471.064 338.299 471.11 335.127H474.354C475.754 335.127 476.878 333.992 476.878 332.571V325.352C476.877 324.036 475.979 322.538 474.823 321.943ZM455.002 321.848H436.641V312.532H455.002V321.848ZM460.275 321.852V315.703H466.476L468.155 321.834L460.275 321.852Z" fill="#FBFBFF"/>
<path d="M453.222 398.415L491.777 373.409L504.516 365.35L515.046 358.57L530.333 348.402L607.444 298.389L595.877 283L453.222 375.332L310.567 283L299 298.389L453.222 398.415Z" fill="#FBFBFF"/>
<path d="M213 133.87H692.65V210.587H576.135H452.146H331.554H213V133.87Z" stroke="#FBFBFF" stroke-width="9"/>
<path d="M228.692 179.179H231.121V164.094H228.692V160.957H238.669V164.094H236.24V169.881H245.096V164.094H242.667V160.957H252.644V164.094H250.215V179.179H252.644V182.316H242.667V179.179H245.096V172.943H236.24V179.179H238.669V182.316H228.692V179.179ZM256.138 179.179H258.567V164.094H256.138V160.957H266.152V164.094H263.686V179.179H266.152V182.316H256.138V179.179ZM270.792 164.094H268.587V160.957H278.751V164.094H276.135L281.03 176.715L285.813 164.094H283.235V160.957H292.315V164.094H290.148L282.6 182.316H278.826L270.792 164.094ZM294.558 179.179H296.986V164.094H294.558V160.957H314.212V167.94H310.887V164.094H302.143V169.807H306.627V167.566H309.205V175.146H306.664V172.831H302.143V179.142H311.036V175.034H314.399V182.316H294.558V179.179ZM317.948 179.179H320.377V164.094H317.948V160.957H330.279C332.845 160.957 334.863 161.455 336.333 162.451C337.827 163.447 338.575 164.965 338.575 167.006C338.575 170.043 336.98 171.923 333.792 172.645L337.79 179.142H340.331V182.316H334.091L328.859 173.242H326.916V170.031H329.794C331.039 170.031 331.936 169.757 332.484 169.209C333.057 168.637 333.343 167.877 333.343 166.931C333.343 166.085 333.069 165.401 332.521 164.878C331.973 164.355 331.163 164.094 330.092 164.094H325.496V179.179H327.851V182.316H317.948V179.179ZM343.164 179.179H345.63V164.094H343.164V160.957H351.571L361.698 175.818V164.094H359.082V160.957H367.676V164.094H365.248V182.316H360.091L349.105 166.147V179.179H351.721V182.316H343.164V179.179ZM369.784 179.179H372.175L377.743 164.094H375.538V160.957H388.729V164.094H386.524L392.204 179.179H394.483V182.316H384.394V179.179H386.935L385.366 174.512H378.378L376.809 179.179H379.163V182.316H369.784V179.179ZM384.469 171.524L382.04 164.131H381.853L379.312 171.524H384.469ZM420.227 170.964V172.346C420.227 175.657 419.206 178.208 417.163 180C415.145 181.793 412.418 182.689 408.98 182.689C406.563 182.689 404.434 182.229 402.59 181.307C400.772 180.386 399.365 179.092 398.368 177.424C397.396 175.732 396.911 173.802 396.911 171.636C396.911 169.471 397.396 167.554 398.368 165.886C399.339 164.193 400.697 162.887 402.441 161.965C404.209 161.044 406.227 160.584 408.494 160.584C410.089 160.584 411.484 160.833 412.679 161.33C413.9 161.804 414.896 162.488 415.669 163.384V160.957H419.256V168.201H416.154C414.834 165.487 412.617 164.131 409.503 164.131C407.311 164.131 405.567 164.791 404.272 166.11C402.976 167.429 402.329 169.234 402.329 171.524C402.329 173.865 402.952 175.719 404.197 177.088C405.442 178.432 407.112 179.104 409.204 179.104C410.923 179.079 412.331 178.668 413.427 177.872C414.522 177.051 415.133 175.818 415.258 174.175H411.259V170.964H420.227ZM423.772 179.179H426.201V164.094H423.772V160.957H443.427V167.94H440.101V164.094H431.357V169.807H435.841V167.566H438.419V175.146H435.878V172.831H431.357V179.142H440.25V175.034H443.613V182.316H423.772V179.179ZM481.185 175.706C480.512 177.972 479.242 179.702 477.374 180.897C475.53 182.092 473.238 182.701 470.498 182.726C468.207 182.726 466.164 182.266 464.37 181.345C462.602 180.423 461.206 179.129 460.185 177.461C459.188 175.793 458.69 173.852 458.69 171.636C458.69 169.445 459.164 167.517 460.11 165.849C461.082 164.181 462.427 162.887 464.146 161.965C465.865 161.044 467.833 160.584 470.05 160.584C471.619 160.584 473.014 160.833 474.235 161.33C475.456 161.828 476.439 162.538 477.187 163.459V160.957H480.662V168.126L477.673 168.164C476.95 166.794 476.054 165.786 474.982 165.139C473.936 164.467 472.653 164.131 471.133 164.131C468.941 164.131 467.198 164.828 465.902 166.222C464.607 167.591 463.959 169.371 463.959 171.562C463.959 173.08 464.246 174.412 464.819 175.557C465.416 176.702 466.226 177.586 467.247 178.208C468.294 178.831 469.477 179.142 470.797 179.142C472.392 179.142 473.737 178.731 474.833 177.909C475.954 177.088 476.751 175.844 477.224 174.175L481.185 175.706ZM484.857 179.179H487.286V164.094H484.857V160.957H494.834V164.094H492.405V169.881H501.261V164.094H498.832V160.957H508.809V164.094H506.38V179.179H508.809V182.316H498.832V179.179H501.261V172.943H492.405V179.179H494.834V182.316H484.857V179.179ZM511.332 179.179H513.723L519.291 164.094H517.086V160.957H530.276V164.094H528.072L533.752 179.179H536.031V182.316H525.942V179.179H528.483L526.914 174.512H519.926L518.357 179.179H520.711V182.316H511.332V179.179ZM526.017 171.524L523.588 164.131H523.401L520.86 171.524H526.017ZM538.645 179.179H541.111V164.094H538.645V160.957H547.053L557.179 175.818V164.094H554.563V160.957H563.158V164.094H560.729V182.316H555.572L544.587 166.147V179.179H547.202V182.316H538.645V179.179ZM565.265 179.179H567.657L573.224 164.094H571.02V160.957H584.21V164.094H582.005L587.685 179.179H589.964V182.316H579.875V179.179H582.416L580.847 174.512H573.859L572.29 179.179H574.644V182.316H565.265V179.179ZM579.95 171.524L577.521 164.131H577.335L574.794 171.524H579.95ZM592.541 179.179H594.97V163.907H592.541V160.957H602.518V163.907H600.089V179.179H607.04V173.205H610.627V182.316H592.541V179.179ZM613.158 179.179H615.587V164.094H613.158V160.957H632.813V167.94H629.487V164.094H620.744V169.807H625.228V167.566H627.806V175.146H625.265V172.831H620.744V179.142H629.637V175.034H633V182.316H613.158V179.179ZM641.22 179.179H643.798V164.019H639.277V168.686H635.839V160.957H656.802V168.686H653.401V164.019H648.917V179.179H651.533V182.316H641.22V179.179ZM670.228 169.321C672.718 169.794 674.537 170.553 675.683 171.599C676.829 172.619 677.402 174.126 677.402 176.117C677.402 178.084 676.754 179.677 675.459 180.897C674.163 182.092 672.407 182.689 670.19 182.689C668.895 182.689 667.649 182.44 666.454 181.942C665.258 181.445 664.324 180.772 663.651 179.926V182.316H660.064V175.072H663.278C663.676 176.441 664.423 177.548 665.52 178.395C666.615 179.216 667.935 179.627 669.48 179.627C670.476 179.627 671.249 179.403 671.797 178.955C672.37 178.482 672.656 177.823 672.656 176.976C672.656 176.005 672.358 175.308 671.76 174.885C671.186 174.437 670.14 174.063 668.621 173.765L666.715 173.391C664.473 172.943 662.779 172.184 661.633 171.114C660.487 170.018 659.915 168.562 659.915 166.745C659.915 164.853 660.55 163.347 661.82 162.227C663.091 161.106 664.784 160.546 666.902 160.546C668.222 160.546 669.393 160.758 670.415 161.181C671.461 161.58 672.32 162.152 672.993 162.899V160.957H676.356V167.118H673.254C672.905 166.122 672.307 165.289 671.461 164.616C670.639 163.944 669.48 163.608 667.986 163.608C667.014 163.608 666.254 163.832 665.706 164.28C665.183 164.703 664.922 165.289 664.922 166.035C664.922 166.882 665.245 167.541 665.893 168.014C666.566 168.462 667.624 168.824 669.069 169.097L670.228 169.321Z" fill="#FBFBFF"/>
<path d="M4.0305 252.456H7.8705V230.52H4.0305V227.976H12.3825L27.8385 249.816V230.52H23.9985V227.976H34.6065V230.52H30.8625V255H26.9745L10.8465 232.008V252.456H14.6865V255H4.0305V252.456ZM57.0274 252.456V255H50.9314L50.7394 253.32C49.7154 254.088 48.6914 254.648 47.6674 255C46.6434 255.352 45.4914 255.528 44.2114 255.528C42.2914 255.528 40.7234 255 39.5074 253.944C38.3234 252.856 37.7314 251.512 37.7314 249.912C37.7314 247.864 38.4194 246.376 39.7954 245.448C41.2034 244.488 43.0434 244.008 45.3154 244.008C46.9474 244.008 48.6914 244.216 50.5474 244.632V242.664C50.5474 241.224 50.1474 240.136 49.3474 239.4C48.5794 238.664 47.4914 238.296 46.0834 238.296C45.1554 238.296 44.0834 238.456 42.8674 238.776C41.6834 239.064 40.5954 239.48 39.6034 240.024L38.5474 237.72C39.6034 237.048 40.8194 236.536 42.1954 236.184C43.6034 235.832 44.9154 235.656 46.1314 235.656C48.5954 235.656 50.5314 236.264 51.9394 237.48C53.3474 238.664 54.0514 240.28 54.0514 242.328V252.456H57.0274ZM41.0914 249.72C41.0914 250.712 41.4114 251.528 42.0514 252.168C42.7234 252.776 43.6194 253.08 44.7394 253.08C46.6274 253.08 48.5634 252.392 50.5474 251.016V246.696C48.8514 246.312 47.1874 246.12 45.5554 246.12C44.2754 246.12 43.2034 246.408 42.3394 246.984C41.5074 247.528 41.0914 248.44 41.0914 249.72ZM81.702 252.456V255H74.79L74.694 252.696C72.39 254.552 70.07 255.48 67.734 255.48C65.622 255.48 64.038 254.888 62.982 253.704C61.958 252.52 61.446 251 61.446 249.144V238.68H58.278V236.136H64.998V248.76C64.998 249.976 65.286 250.936 65.862 251.64C66.47 252.312 67.366 252.648 68.55 252.648C70.726 252.648 72.774 251.768 74.694 250.008V238.68H71.286V236.136H78.198V252.456H81.702ZM91.7708 255C88.1228 255 86.2988 253.144 86.2988 249.432V238.68H83.1788V236.136H86.2988V229.704L89.8508 228.312V236.136H94.8428V238.68H89.8508V249.24C89.8508 250.424 90.0428 251.256 90.4268 251.736C90.8108 252.216 91.4668 252.456 92.3948 252.456H95.2748V255H91.7708ZM102.656 232.008C101.92 232.008 101.296 231.784 100.784 231.336C100.304 230.856 100.064 230.264 100.064 229.56C100.064 228.856 100.304 228.28 100.784 227.832C101.296 227.352 101.92 227.112 102.656 227.112C103.392 227.112 104 227.352 104.48 227.832C104.992 228.28 105.248 228.856 105.248 229.56C105.248 230.264 104.992 230.856 104.48 231.336C104 231.784 103.392 232.008 102.656 232.008ZM97.7123 252.456H101.36V238.68H97.7603V236.136H104.864V252.456H108.272V255H97.7123V252.456ZM121.885 244.056C123.357 244.408 124.525 244.792 125.389 245.208C126.285 245.592 127.005 246.168 127.549 246.936C128.093 247.704 128.365 248.728 128.365 250.008C128.365 251.8 127.661 253.16 126.253 254.088C124.845 255.016 123.149 255.48 121.165 255.48C119.949 255.48 118.797 255.288 117.709 254.904C116.621 254.52 115.757 254.008 115.117 253.368V255H112.333V248.472H114.829L115.021 250.536C115.565 251.336 116.349 251.96 117.373 252.408C118.429 252.824 119.533 253.032 120.685 253.032C121.933 253.032 122.957 252.792 123.757 252.312C124.557 251.8 124.957 251.128 124.957 250.296C124.957 249.336 124.653 248.648 124.045 248.232C123.437 247.816 122.301 247.432 120.637 247.08L117.997 246.504C116.045 246.024 114.605 245.4 113.677 244.632C112.749 243.832 112.285 242.6 112.285 240.936C112.285 239.304 112.925 238.024 114.205 237.096C115.517 236.136 117.197 235.656 119.245 235.656C120.237 235.656 121.245 235.816 122.269 236.136C123.325 236.456 124.157 236.904 124.765 237.48V236.04H127.597V242.52H125.101L124.765 240.168C124.285 239.592 123.565 239.128 122.605 238.776C121.677 238.392 120.749 238.2 119.821 238.2C118.701 238.2 117.757 238.424 116.989 238.872C116.221 239.32 115.837 239.976 115.837 240.84C115.837 241.544 116.109 242.088 116.653 242.472C117.197 242.856 118.125 243.208 119.437 243.528L121.885 244.056ZM125.293 241.128L125.245 241.032L125.293 241.128ZM114.445 249.336C114.445 249.4 114.461 249.448 114.493 249.48L114.445 249.336ZM167.852 252.456V255H157.724V252.456H160.892V242.616C160.892 241.304 160.572 240.28 159.932 239.544C159.292 238.808 158.412 238.44 157.292 238.44C155.34 238.44 153.292 239.16 151.148 240.6C151.244 241.08 151.292 241.56 151.292 242.04V252.456H154.748V255H144.62V252.456H147.788V242.616C147.788 241.304 147.468 240.28 146.828 239.544C146.188 238.808 145.308 238.44 144.188 238.44C142.556 238.44 140.62 239.08 138.38 240.36V252.456H141.788V255H131.228V252.456H134.876V238.68H131.228V236.136H138.38V237.96C140.812 236.424 143.052 235.656 145.1 235.656C146.348 235.656 147.436 235.928 148.364 236.472C149.292 236.984 149.996 237.704 150.476 238.632C151.884 237.672 153.196 236.936 154.412 236.424C155.628 235.912 156.892 235.656 158.204 235.656C159.996 235.656 161.468 236.216 162.62 237.336C163.804 238.424 164.396 239.96 164.396 241.944V252.456H167.852ZM188.401 246.312H172.849C173.073 248.328 173.793 249.928 175.009 251.112C176.225 252.264 177.777 252.84 179.665 252.84C182.289 252.84 184.673 251.832 186.817 249.816L188.065 251.976C187.137 253.064 185.969 253.944 184.561 254.616C183.153 255.256 181.569 255.576 179.809 255.576C177.825 255.576 176.017 255.16 174.385 254.328C172.753 253.496 171.473 252.328 170.545 250.824C169.617 249.288 169.153 247.544 169.153 245.592C169.153 243.608 169.585 241.864 170.449 240.36C171.345 238.824 172.545 237.656 174.049 236.856C175.585 236.024 177.281 235.608 179.137 235.608C182.017 235.608 184.273 236.488 185.905 238.248C187.569 240.008 188.401 242.392 188.401 245.4V246.312ZM184.897 244.104C184.897 242.28 184.353 240.84 183.265 239.784C182.209 238.728 180.833 238.2 179.137 238.2C177.473 238.2 176.065 238.728 174.913 239.784C173.761 240.84 173.073 242.28 172.849 244.104H184.897ZM252.754 230.52H249.346V227.976H260.338V230.52H256.786L264.418 250.728L271.954 230.52H268.498V227.976H278.77V230.52H275.458L265.858 255H262.45L252.754 230.52ZM300.057 246.312H284.505C284.729 248.328 285.449 249.928 286.665 251.112C287.881 252.264 289.433 252.84 291.321 252.84C293.945 252.84 296.329 251.832 298.473 249.816L299.721 251.976C298.793 253.064 297.625 253.944 296.217 254.616C294.809 255.256 293.225 255.576 291.465 255.576C289.481 255.576 287.673 255.16 286.041 254.328C284.409 253.496 283.129 252.328 282.201 250.824C281.273 249.288 280.809 247.544 280.809 245.592C280.809 243.608 281.241 241.864 282.105 240.36C283.001 238.824 284.201 237.656 285.705 236.856C287.241 236.024 288.937 235.608 290.793 235.608C293.673 235.608 295.929 236.488 297.561 238.248C299.225 240.008 300.057 242.392 300.057 245.4V246.312ZM296.553 244.104C296.553 242.28 296.009 240.84 294.921 239.784C293.865 238.728 292.489 238.2 290.793 238.2C289.129 238.2 287.721 238.728 286.569 239.784C285.417 240.84 284.729 242.28 284.505 244.104H296.553ZM292.377 225.144H296.409L292.089 232.104H289.833L292.377 225.144ZM326.166 252.456V255H316.038V252.456H319.158V242.616C319.158 241.304 318.838 240.28 318.198 239.544C317.59 238.808 316.726 238.44 315.606 238.44C313.686 238.44 311.606 239.176 309.366 240.648V252.456H312.438V255H302.31V252.456H305.814V229.992H302.358V227.496H309.366V238.248C311.958 236.52 314.326 235.656 316.47 235.656C318.262 235.656 319.75 236.216 320.934 237.336C322.118 238.424 322.71 239.96 322.71 241.944V252.456H326.166ZM332.766 232.008C332.03 232.008 331.406 231.784 330.894 231.336C330.414 230.856 330.174 230.264 330.174 229.56C330.174 228.856 330.414 228.28 330.894 227.832C331.406 227.352 332.03 227.112 332.766 227.112C333.502 227.112 334.11 227.352 334.59 227.832C335.102 228.28 335.358 228.856 335.358 229.56C335.358 230.264 335.102 230.856 334.59 231.336C334.11 231.784 333.502 232.008 332.766 232.008ZM327.822 252.456H331.47V238.68H327.87V236.136H334.974V252.456H338.382V255H327.822V252.456ZM351.515 238.392C349.467 238.392 347.787 239.048 346.475 240.36C345.163 241.672 344.507 243.336 344.507 245.352C344.507 247.528 345.147 249.304 346.427 250.68C347.707 252.024 349.371 252.696 351.419 252.696C352.955 252.696 354.251 252.408 355.307 251.832C356.363 251.224 357.387 250.36 358.379 249.24L359.867 251.4C358.875 252.68 357.643 253.688 356.171 254.424C354.699 255.128 353.003 255.48 351.083 255.48C349.099 255.48 347.323 255.048 345.755 254.184C344.219 253.32 343.003 252.136 342.107 250.632C341.243 249.096 340.811 247.368 340.811 245.448C340.811 243.528 341.227 241.832 342.059 240.36C342.923 238.856 344.107 237.688 345.611 236.856C347.115 236.024 348.811 235.608 350.699 235.608C352.107 235.608 353.355 235.864 354.443 236.376C355.531 236.888 356.363 237.576 356.939 238.44V236.04H359.915V242.808H357.227C356.939 241.432 356.283 240.36 355.259 239.592C354.235 238.792 352.987 238.392 351.515 238.392ZM386.015 252.456V255H379.103L379.007 252.696C376.703 254.552 374.383 255.48 372.047 255.48C369.935 255.48 368.351 254.888 367.295 253.704C366.271 252.52 365.759 251 365.759 249.144V238.68H362.591V236.136H369.311V248.76C369.311 249.976 369.599 250.936 370.175 251.64C370.783 252.312 371.679 252.648 372.863 252.648C375.039 252.648 377.087 251.768 379.007 250.008V238.68H375.599V236.136H382.511V252.456H386.015ZM387.827 252.456H391.331V229.992H387.923V227.496H394.883V252.456H397.955V255H387.827V252.456ZM419.448 246.312H403.896C404.12 248.328 404.84 249.928 406.056 251.112C407.272 252.264 408.824 252.84 410.712 252.84C413.336 252.84 415.72 251.832 417.864 249.816L419.112 251.976C418.184 253.064 417.016 253.944 415.608 254.616C414.2 255.256 412.616 255.576 410.856 255.576C408.872 255.576 407.064 255.16 405.432 254.328C403.8 253.496 402.52 252.328 401.592 250.824C400.664 249.288 400.2 247.544 400.2 245.592C400.2 243.608 400.632 241.864 401.496 240.36C402.392 238.824 403.592 237.656 405.096 236.856C406.632 236.024 408.328 235.608 410.184 235.608C413.064 235.608 415.32 236.488 416.952 238.248C418.616 240.008 419.448 242.392 419.448 245.4V246.312ZM415.944 244.104C415.944 242.28 415.4 240.84 414.312 239.784C413.256 238.728 411.88 238.2 410.184 238.2C408.52 238.2 407.112 238.728 405.96 239.784C404.808 240.84 404.12 242.28 403.896 244.104H415.944ZM433.557 244.056C435.029 244.408 436.197 244.792 437.061 245.208C437.957 245.592 438.677 246.168 439.221 246.936C439.765 247.704 440.037 248.728 440.037 250.008C440.037 251.8 439.333 253.16 437.925 254.088C436.517 255.016 434.821 255.48 432.837 255.48C431.621 255.48 430.469 255.288 429.381 254.904C428.293 254.52 427.429 254.008 426.789 253.368V255H424.005V248.472H426.501L426.693 250.536C427.237 251.336 428.021 251.96 429.045 252.408C430.101 252.824 431.205 253.032 432.357 253.032C433.605 253.032 434.629 252.792 435.429 252.312C436.229 251.8 436.629 251.128 436.629 250.296C436.629 249.336 436.325 248.648 435.717 248.232C435.109 247.816 433.973 247.432 432.309 247.08L429.669 246.504C427.717 246.024 426.277 245.4 425.349 244.632C424.421 243.832 423.957 242.6 423.957 240.936C423.957 239.304 424.597 238.024 425.877 237.096C427.189 236.136 428.869 235.656 430.917 235.656C431.909 235.656 432.917 235.816 433.941 236.136C434.997 236.456 435.829 236.904 436.437 237.48V236.04H439.269V242.52H436.773L436.437 240.168C435.957 239.592 435.237 239.128 434.277 238.776C433.349 238.392 432.421 238.2 431.493 238.2C430.373 238.2 429.429 238.424 428.661 238.872C427.893 239.32 427.509 239.976 427.509 240.84C427.509 241.544 427.781 242.088 428.325 242.472C428.869 242.856 429.797 243.208 431.109 243.528L433.557 244.056ZM436.965 241.128L436.917 241.032L436.965 241.128ZM426.117 249.336C426.117 249.4 426.133 249.448 426.165 249.48L426.117 249.336ZM479.989 252.456V255H473.461V253.656C471.701 254.904 469.701 255.528 467.461 255.528C465.701 255.528 464.085 255.128 462.613 254.328C461.141 253.528 459.973 252.376 459.109 250.872C458.245 249.336 457.813 247.56 457.813 245.544C457.813 243.496 458.229 241.72 459.061 240.216C459.893 238.712 461.013 237.576 462.421 236.808C463.829 236.04 465.381 235.656 467.077 235.656C468.165 235.656 469.269 235.832 470.389 236.184C471.509 236.504 472.533 236.984 473.461 237.624V229.992H470.101V227.496H477.013V252.456H479.989ZM461.509 245.832C461.509 248.008 462.133 249.72 463.381 250.968C464.661 252.216 466.277 252.84 468.229 252.84C470.053 252.84 471.797 252.264 473.461 251.112V240.168C472.565 239.592 471.621 239.144 470.629 238.824C469.637 238.504 468.693 238.344 467.797 238.344C465.909 238.344 464.389 239 463.237 240.312C462.085 241.624 461.509 243.464 461.509 245.832ZM501.526 246.312H485.974C486.198 248.328 486.918 249.928 488.134 251.112C489.35 252.264 490.902 252.84 492.79 252.84C495.414 252.84 497.798 251.832 499.942 249.816L501.19 251.976C500.262 253.064 499.094 253.944 497.686 254.616C496.278 255.256 494.694 255.576 492.934 255.576C490.95 255.576 489.142 255.16 487.51 254.328C485.878 253.496 484.598 252.328 483.67 250.824C482.742 249.288 482.278 247.544 482.278 245.592C482.278 243.608 482.71 241.864 483.574 240.36C484.47 238.824 485.67 237.656 487.174 236.856C488.71 236.024 490.406 235.608 492.262 235.608C495.142 235.608 497.398 236.488 499.03 238.248C500.694 240.008 501.526 242.392 501.526 245.4V246.312ZM498.022 244.104C498.022 242.28 497.478 240.84 496.39 239.784C495.334 238.728 493.958 238.2 492.262 238.2C490.598 238.2 489.19 238.728 488.038 239.784C486.886 240.84 486.198 242.28 485.974 244.104H498.022ZM519.124 252.456H522.628V229.992H519.22V227.496H526.18V252.456H529.252V255H519.124V252.456ZM541.673 255.576C539.657 255.576 537.881 255.16 536.345 254.328C534.809 253.496 533.609 252.328 532.745 250.824C531.913 249.288 531.497 247.528 531.497 245.544C531.497 243.56 531.913 241.816 532.745 240.312C533.609 238.808 534.809 237.656 536.345 236.856C537.881 236.024 539.657 235.608 541.673 235.608C543.689 235.608 545.465 236.024 547.001 236.856C548.569 237.656 549.785 238.808 550.649 240.312C551.513 241.816 551.945 243.544 551.945 245.496C551.945 247.48 551.513 249.24 550.649 250.776C549.785 252.312 548.569 253.496 547.001 254.328C545.465 255.16 543.689 255.576 541.673 255.576ZM541.673 252.792C543.657 252.792 545.257 252.136 546.473 250.824C547.689 249.48 548.297 247.704 548.297 245.496C548.297 243.352 547.689 241.64 546.473 240.36C545.257 239.048 543.657 238.392 541.673 238.392C539.689 238.392 538.105 239.048 536.921 240.36C535.737 241.672 535.145 243.4 535.145 245.544C535.145 247.72 535.737 249.48 536.921 250.824C538.137 252.136 539.721 252.792 541.673 252.792ZM559.125 232.008C558.389 232.008 557.765 231.784 557.253 231.336C556.773 230.856 556.533 230.264 556.533 229.56C556.533 228.856 556.773 228.28 557.253 227.832C557.765 227.352 558.389 227.112 559.125 227.112C559.861 227.112 560.469 227.352 560.949 227.832C561.461 228.28 561.717 228.856 561.717 229.56C561.717 230.264 561.461 230.856 560.949 231.336C560.469 231.784 559.861 232.008 559.125 232.008ZM554.181 252.456H557.829V238.68H554.229V236.136H561.333V252.456H564.741V255H554.181V252.456ZM578.354 244.056C579.826 244.408 580.994 244.792 581.858 245.208C582.754 245.592 583.474 246.168 584.018 246.936C584.562 247.704 584.834 248.728 584.834 250.008C584.834 251.8 584.13 253.16 582.722 254.088C581.314 255.016 579.618 255.48 577.634 255.48C576.418 255.48 575.266 255.288 574.178 254.904C573.09 254.52 572.226 254.008 571.586 253.368V255H568.802V248.472H571.298L571.49 250.536C572.034 251.336 572.818 251.96 573.842 252.408C574.898 252.824 576.002 253.032 577.154 253.032C578.402 253.032 579.426 252.792 580.226 252.312C581.026 251.8 581.426 251.128 581.426 250.296C581.426 249.336 581.122 248.648 580.514 248.232C579.906 247.816 578.77 247.432 577.106 247.08L574.466 246.504C572.514 246.024 571.074 245.4 570.146 244.632C569.218 243.832 568.754 242.6 568.754 240.936C568.754 239.304 569.394 238.024 570.674 237.096C571.986 236.136 573.666 235.656 575.714 235.656C576.706 235.656 577.714 235.816 578.738 236.136C579.794 236.456 580.626 236.904 581.234 237.48V236.04H584.066V242.52H581.57L581.234 240.168C580.754 239.592 580.034 239.128 579.074 238.776C578.146 238.392 577.218 238.2 576.29 238.2C575.17 238.2 574.226 238.424 573.458 238.872C572.69 239.32 572.306 239.976 572.306 240.84C572.306 241.544 572.578 242.088 573.122 242.472C573.666 242.856 574.594 243.208 575.906 243.528L578.354 244.056ZM581.762 241.128L581.714 241.032L581.762 241.128ZM570.914 249.336C570.914 249.4 570.93 249.448 570.962 249.48L570.914 249.336ZM592.641 232.008C591.905 232.008 591.281 231.784 590.769 231.336C590.289 230.856 590.049 230.264 590.049 229.56C590.049 228.856 590.289 228.28 590.769 227.832C591.281 227.352 591.905 227.112 592.641 227.112C593.377 227.112 593.985 227.352 594.465 227.832C594.977 228.28 595.233 228.856 595.233 229.56C595.233 230.264 594.977 230.856 594.465 231.336C593.985 231.784 593.377 232.008 592.641 232.008ZM587.697 252.456H591.345V238.68H587.745V236.136H594.849V252.456H598.257V255H587.697V252.456ZM613.118 235.896C614.334 235.896 615.614 236.216 616.958 236.856L616.094 240.072C615.006 239.368 613.902 239.016 612.782 239.016C611.502 239.016 610.43 239.544 609.566 240.6C608.734 241.624 608.318 243.048 608.318 244.872L608.27 252.456H611.63V255H601.118V252.456H604.766V238.68H601.118V236.136H608.27V239.592C609.294 237.128 610.91 235.896 613.118 235.896ZM630.385 244.056C631.857 244.408 633.025 244.792 633.889 245.208C634.785 245.592 635.505 246.168 636.049 246.936C636.593 247.704 636.865 248.728 636.865 250.008C636.865 251.8 636.161 253.16 634.753 254.088C633.345 255.016 631.649 255.48 629.665 255.48C628.449 255.48 627.297 255.288 626.209 254.904C625.121 254.52 624.257 254.008 623.617 253.368V255H620.833V248.472H623.329L623.521 250.536C624.065 251.336 624.849 251.96 625.873 252.408C626.929 252.824 628.033 253.032 629.185 253.032C630.433 253.032 631.457 252.792 632.257 252.312C633.057 251.8 633.457 251.128 633.457 250.296C633.457 249.336 633.153 248.648 632.545 248.232C631.937 247.816 630.801 247.432 629.137 247.08L626.497 246.504C624.545 246.024 623.105 245.4 622.177 244.632C621.249 243.832 620.785 242.6 620.785 240.936C620.785 239.304 621.425 238.024 622.705 237.096C624.017 236.136 625.697 235.656 627.745 235.656C628.737 235.656 629.745 235.816 630.769 236.136C631.825 236.456 632.657 236.904 633.265 237.48V236.04H636.097V242.52H633.601L633.265 240.168C632.785 239.592 632.065 239.128 631.105 238.776C630.177 238.392 629.249 238.2 628.321 238.2C627.201 238.2 626.257 238.424 625.489 238.872C624.721 239.32 624.337 239.976 624.337 240.84C624.337 241.544 624.609 242.088 625.153 242.472C625.697 242.856 626.625 243.208 627.937 243.528L630.385 244.056ZM633.793 241.128L633.745 241.032L633.793 241.128ZM622.945 249.336C622.945 249.4 622.961 249.448 622.993 249.48L622.945 249.336ZM726.356 247.704C724.34 252.856 720.116 255.464 713.684 255.528C710.9 255.528 708.436 254.936 706.292 253.752C704.148 252.536 702.484 250.872 701.3 248.76C700.116 246.648 699.524 244.216 699.524 241.464C699.524 238.776 700.1 236.376 701.252 234.264C702.436 232.152 704.1 230.504 706.244 229.32C708.42 228.104 710.916 227.496 713.732 227.496C715.748 227.496 717.556 227.88 719.156 228.648C720.756 229.384 722.004 230.408 722.9 231.72V227.976H725.78V236.136L723.188 236.232C722.196 234.184 720.948 232.696 719.444 231.768C717.94 230.84 716.1 230.376 713.924 230.376C711.844 230.376 710.004 230.872 708.404 231.864C706.836 232.824 705.62 234.136 704.756 235.8C703.892 237.464 703.46 239.336 703.46 241.416C703.46 243.656 703.908 245.624 704.804 247.32C705.7 249.016 706.948 250.328 708.548 251.256C710.148 252.184 711.94 252.648 713.924 252.648C716.1 252.648 718.036 252.136 719.732 251.112C721.46 250.088 722.708 248.472 723.476 246.264L726.356 247.704ZM750.262 252.456V255H744.166L743.974 253.32C742.95 254.088 741.926 254.648 740.902 255C739.878 255.352 738.726 255.528 737.446 255.528C735.526 255.528 733.958 255 732.742 253.944C731.558 252.856 730.966 251.512 730.966 249.912C730.966 247.864 731.654 246.376 733.03 245.448C734.438 244.488 736.278 244.008 738.55 244.008C740.182 244.008 741.926 244.216 743.782 244.632V242.664C743.782 241.224 743.382 240.136 742.582 239.4C741.814 238.664 740.726 238.296 739.318 238.296C738.39 238.296 737.318 238.456 736.102 238.776C734.918 239.064 733.83 239.48 732.838 240.024L731.782 237.72C732.838 237.048 734.054 236.536 735.43 236.184C736.838 235.832 738.15 235.656 739.366 235.656C741.83 235.656 743.766 236.264 745.174 237.48C746.582 238.664 747.286 240.28 747.286 242.328V252.456H750.262ZM734.326 249.72C734.326 250.712 734.646 251.528 735.286 252.168C735.958 252.776 736.854 253.08 737.974 253.08C739.862 253.08 741.798 252.392 743.782 251.016V246.696C742.086 246.312 740.422 246.12 738.79 246.12C737.51 246.12 736.438 246.408 735.574 246.984C734.742 247.528 734.326 248.44 734.326 249.72ZM764.664 235.896C765.88 235.896 767.16 236.216 768.504 236.856L767.64 240.072C766.552 239.368 765.448 239.016 764.328 239.016C763.048 239.016 761.976 239.544 761.112 240.6C760.28 241.624 759.864 243.048 759.864 244.872L759.816 252.456H763.176V255H752.664V252.456H756.312V238.68H752.664V236.136H759.816V239.592C760.84 237.128 762.456 235.896 764.664 235.896ZM790.668 252.456V255H784.572L784.38 253.32C783.356 254.088 782.332 254.648 781.308 255C780.284 255.352 779.132 255.528 777.852 255.528C775.932 255.528 774.364 255 773.148 253.944C771.964 252.856 771.372 251.512 771.372 249.912C771.372 247.864 772.06 246.376 773.436 245.448C774.844 244.488 776.684 244.008 778.956 244.008C780.588 244.008 782.332 244.216 784.188 244.632V242.664C784.188 241.224 783.788 240.136 782.988 239.4C782.22 238.664 781.132 238.296 779.724 238.296C778.796 238.296 777.724 238.456 776.508 238.776C775.324 239.064 774.236 239.48 773.244 240.024L772.188 237.72C773.244 237.048 774.46 236.536 775.836 236.184C777.244 235.832 778.556 235.656 779.772 235.656C782.236 235.656 784.172 236.264 785.58 237.48C786.988 238.664 787.692 240.28 787.692 242.328V252.456H790.668ZM774.732 249.72C774.732 250.712 775.052 251.528 775.692 252.168C776.364 252.776 777.26 253.08 778.38 253.08C780.268 253.08 782.204 252.392 784.188 251.016V246.696C782.492 246.312 780.828 246.12 779.196 246.12C777.916 246.12 776.844 246.408 775.98 246.984C775.148 247.528 774.732 248.44 774.732 249.72ZM794.943 238.68H791.727V236.136H801.807V238.68H798.735L804.015 251.352L809.247 238.68H806.223V236.136H815.727V238.68H812.703L805.359 255H802.143L794.943 238.68ZM837.215 252.456V255H831.119L830.927 253.32C829.903 254.088 828.879 254.648 827.855 255C826.831 255.352 825.679 255.528 824.399 255.528C822.479 255.528 820.911 255 819.695 253.944C818.511 252.856 817.919 251.512 817.919 249.912C817.919 247.864 818.607 246.376 819.983 245.448C821.391 244.488 823.231 244.008 825.503 244.008C827.135 244.008 828.879 244.216 830.735 244.632V242.664C830.735 241.224 830.335 240.136 829.535 239.4C828.767 238.664 827.679 238.296 826.271 238.296C825.343 238.296 824.271 238.456 823.055 238.776C821.871 239.064 820.783 239.48 819.791 240.024L818.735 237.72C819.791 237.048 821.007 236.536 822.383 236.184C823.791 235.832 825.103 235.656 826.319 235.656C828.783 235.656 830.719 236.264 832.127 237.48C833.535 238.664 834.239 240.28 834.239 242.328V252.456H837.215ZM821.279 249.72C821.279 250.712 821.599 251.528 822.239 252.168C822.911 252.776 823.807 253.08 824.927 253.08C826.815 253.08 828.751 252.392 830.735 251.016V246.696C829.039 246.312 827.375 246.12 825.743 246.12C824.463 246.12 823.391 246.408 822.527 246.984C821.695 247.528 821.279 248.44 821.279 249.72ZM862.658 252.456V255H852.53V252.456H855.65V242.616C855.65 241.304 855.33 240.28 854.69 239.544C854.05 238.808 853.17 238.44 852.049 238.44C851.122 238.44 850.178 238.616 849.218 238.968C848.29 239.288 847.266 239.784 846.146 240.456V252.456H849.554V255H838.994V252.456H842.642V238.68H838.994V236.136H846.146V238.008C848.642 236.44 850.914 235.656 852.962 235.656C854.754 235.656 856.226 236.216 857.378 237.336C858.562 238.424 859.154 239.96 859.154 241.944V252.456H862.658ZM868.734 232.008C867.998 232.008 867.374 231.784 866.862 231.336C866.382 230.856 866.142 230.264 866.142 229.56C866.142 228.856 866.382 228.28 866.862 227.832C867.374 227.352 867.998 227.112 868.734 227.112C869.47 227.112 870.078 227.352 870.558 227.832C871.07 228.28 871.326 228.856 871.326 229.56C871.326 230.264 871.07 230.856 870.558 231.336C870.078 231.784 869.47 232.008 868.734 232.008ZM863.79 252.456H867.438V238.68H863.838V236.136H870.942V252.456H874.35V255H863.79V252.456ZM900.251 252.456V255H890.123V252.456H893.243V242.616C893.243 241.304 892.923 240.28 892.283 239.544C891.643 238.808 890.763 238.44 889.643 238.44C888.715 238.44 887.771 238.616 886.811 238.968C885.883 239.288 884.859 239.784 883.739 240.456V252.456H887.147V255H876.587V252.456H880.235V238.68H876.587V236.136H883.739V238.008C886.235 236.44 888.507 235.656 890.555 235.656C892.347 235.656 893.819 236.216 894.971 237.336C896.155 238.424 896.747 239.96 896.747 241.944V252.456H900.251ZM924.472 236.136V238.68H921.304V255.432C921.304 258.344 920.424 260.504 918.664 261.912C916.904 263.32 914.552 264.024 911.608 264.024C909.368 264.024 907 263.64 904.504 262.872L905.224 260.088C907.656 260.824 909.752 261.192 911.512 261.192C913.496 261.192 915.032 260.728 916.12 259.8C917.208 258.904 917.752 257.528 917.752 255.672V253.08C916.856 253.752 915.848 254.264 914.728 254.616C913.64 254.968 912.552 255.144 911.464 255.144C909.672 255.144 908.04 254.76 906.568 253.992C905.096 253.192 903.928 252.056 903.064 250.584C902.232 249.112 901.816 247.384 901.816 245.4C901.816 243.352 902.232 241.608 903.064 240.168C903.896 238.696 905.032 237.592 906.472 236.856C907.944 236.088 909.576 235.704 911.368 235.704C912.456 235.704 913.576 235.896 914.728 236.28C915.88 236.632 916.872 237.144 917.704 237.816V236.136H924.472ZM905.512 245.64C905.512 247.784 906.136 249.464 907.384 250.68C908.632 251.896 910.232 252.504 912.184 252.504C913.112 252.504 914.056 252.344 915.016 252.024C916.008 251.704 916.92 251.24 917.752 250.632L917.704 240.264C916.776 239.656 915.784 239.176 914.728 238.824C913.704 238.472 912.728 238.296 911.8 238.296C909.912 238.296 908.392 238.952 907.24 240.264C906.088 241.544 905.512 243.336 905.512 245.64Z" fill="#FBFBFF"/>
<path d="M681.934 240.065C681.744 239.48 681.181 239.079 680.387 238.963L673.916 238.019L671.023 232.136C670.668 231.414 670.113 231 669.5 231C668.887 231 668.332 231.414 667.977 232.136L665.084 238.019L658.613 238.963C657.819 239.079 657.255 239.48 657.066 240.065C656.877 240.65 657.098 241.308 657.672 241.869L662.354 246.449L661.249 252.916C661.108 253.743 661.349 254.238 661.576 254.508C661.842 254.825 662.23 255 662.669 255C662.999 255 663.35 254.903 663.713 254.712L669.5 251.659L675.287 254.712C675.65 254.903 676.001 255 676.331 255H676.331C676.77 255 677.159 254.825 677.425 254.508C677.652 254.238 677.893 253.743 677.751 252.916L676.646 246.449L681.328 241.869C681.902 241.308 682.123 240.65 681.934 240.065Z" fill="white"/>
<path d="M233.934 240.065C233.744 239.48 233.181 239.079 232.387 238.963L225.916 238.019L223.023 232.136C222.668 231.414 222.113 231 221.5 231C220.887 231 220.332 231.414 219.977 232.136L217.084 238.019L210.613 238.963C209.819 239.079 209.255 239.48 209.066 240.065C208.877 240.65 209.098 241.308 209.672 241.869L214.354 246.449L213.249 252.916C213.108 253.743 213.349 254.238 213.576 254.508C213.842 254.825 214.23 255 214.669 255C214.999 255 215.35 254.903 215.713 254.712L221.5 251.659L227.287 254.712C227.65 254.903 228.001 255 228.331 255H228.331C228.77 255 229.159 254.825 229.425 254.508C229.652 254.238 229.893 253.743 229.751 252.916L228.646 246.449L233.328 241.869C233.902 241.308 234.123 240.65 233.934 240.065Z" fill="white"/>
</svg>
