<svg width="162" height="114" viewBox="0 0 162 114" fill="none" xmlns="http://www.w3.org/2000/svg">
<path d="M80.5635 0L67.7747 8.30693L63.5494 10.9838L60.0564 13.2357L54.986 16.6136L29.4084 33.2273L33.2451 38.3392L80.5635 7.66784L127.882 38.3392L131.719 33.2273L80.5635 0Z" fill="#EAC435"/>
<path fill-rule="evenodd" clip-rule="evenodd" d="M80.5636 12.5602L42.1973 38.1196V45.4384H63.7748H83.4931H100.057H118.93V38.1196L80.5636 12.5602ZM74.7044 26.4096H79.6622V31.3638H74.7044V26.4096ZM86.4227 26.4096H81.465V31.3638H86.4227V26.4096ZM81.465 33.3906H86.4227V38.3448H81.465V33.3906ZM79.6622 33.3906H74.7044V38.3448H79.6622V33.3906Z" fill="#EAC435"/>
<path d="M87.697 87.5004L87.055 87.1689C86.7769 87.0259 86.4443 86.6571 86.3275 86.3639L85.8511 85.1667C85.7687 84.96 85.6098 84.7733 85.4153 84.6418H86.6196C87.0976 84.6418 87.4714 84.2572 87.4714 83.7723V82.7837C87.4714 82.2989 87.0976 81.8805 86.6196 81.8805H73.7341C73.2564 81.8805 72.8293 82.2989 72.8293 82.7837V91.0256C72.8293 91.4969 73.2454 91.8737 73.7098 91.8737H74.8765C74.8918 92.9258 75.7562 93.8157 76.8174 93.8157C77.8788 93.8157 78.7435 92.9258 78.7586 91.8737H82.5833C82.5984 92.9258 83.4631 93.8157 84.5243 93.8157C85.5857 93.8157 86.4501 92.9258 86.4655 91.8737H87.5415C88.0057 91.8737 88.3787 91.4969 88.3787 91.0256V88.6313C88.3785 88.1947 88.0806 87.6979 87.697 87.5004ZM81.1223 87.4689H75.0322V84.3788H81.1223V87.4689ZM82.8715 87.4702V85.4307H84.9283L85.4854 87.4642L82.8715 87.4702Z" fill="#01172F"/>
<path d="M80.5635 113.109L93.3523 104.815L97.5776 102.141L101.071 99.8927L106.141 96.5197L131.719 79.9306L127.882 74.8262L80.5635 105.452L33.2451 74.8262L29.4084 79.9306L80.5635 113.109Z" fill="#EAC435"/>
<path d="M1 44.4043H160.099V69.8512H121.451H80.3241H40.324H1V44.4043Z" stroke="#EAC435" stroke-width="2"/>
<path d="M6.20483 59.4332H7.01047V54.4294H6.20483V53.3891H9.51414V54.4294H8.7085V56.3492H11.646V54.4294H10.8403V53.3891H14.1496V54.4294H13.344V59.4332H14.1496V60.4736H10.8403V59.4332H11.646V57.3648H8.7085V59.4332H9.51414V60.4736H6.20483V59.4332ZM15.3086 59.4332H16.1143V54.4294H15.3086V53.3891H18.6303V54.4294H17.8123V59.4332H18.6303V60.4736H15.3086V59.4332ZM20.1693 54.4294H19.438V53.3891H22.8093V54.4294H21.9417L23.5653 58.6158L25.1518 54.4294H24.2966V53.3891H27.3084V54.4294H26.5896L24.0859 60.4736H22.8341L20.1693 54.4294ZM28.0523 59.4332H28.858V54.4294H28.0523V53.3891H34.5718V55.7052H33.4687V54.4294H30.5684V56.3244H32.0557V55.5813H32.9109V58.0956H32.0681V57.3277H30.5684V59.4209H33.5183V58.0584H34.6337V60.4736H28.0523V59.4332ZM35.811 59.4332H36.6166V54.4294H35.811V53.3891H39.9011C40.7521 53.3891 41.4214 53.5541 41.909 53.8845C42.4048 54.2148 42.6527 54.7184 42.6527 55.3955C42.6527 56.4028 42.1238 57.0264 41.0662 57.2658L42.3924 59.4209H43.2352V60.4736H41.1654L39.4302 57.4639H38.7856V56.3988H39.74C40.1531 56.3988 40.4506 56.308 40.6324 56.1263C40.8224 55.9364 40.9175 55.6844 40.9175 55.3707C40.9175 55.0899 40.8264 54.8629 40.6448 54.6895C40.4629 54.5161 40.1943 54.4294 39.8392 54.4294H38.3147V59.4332H39.0955V60.4736H35.811V59.4332ZM44.175 59.4332H44.993V54.4294H44.175V53.3891H46.9637L50.3226 58.3185V54.4294H49.455V53.3891H52.3057V54.4294H51.5V60.4736H49.7896L46.1457 55.1107V59.4332H47.0133V60.4736H44.175V59.4332ZM53.0047 59.4332H53.798L55.6447 54.4294H54.9135V53.3891H59.2887V54.4294H58.5574L60.4414 59.4332H61.1974V60.4736H57.8509V59.4332H58.6938L58.1732 57.885H55.8554L55.3349 59.4332H56.1157V60.4736H53.0047V59.4332ZM57.8757 56.8942L57.0701 54.4418H57.0081L56.1653 56.8942H57.8757ZM69.7367 56.7084V57.1667C69.7367 58.2649 69.398 59.1112 68.7204 59.7057C68.0511 60.3002 67.1463 60.5975 66.006 60.5975C65.2044 60.5975 64.4979 60.4448 63.8866 60.1392C63.2833 59.8336 62.8166 59.4044 62.486 58.8511C62.1637 58.2897 62.0026 57.6497 62.0026 56.9313C62.0026 56.213 62.1637 55.5773 62.486 55.024C62.8082 54.4625 63.2585 54.029 63.837 53.7235C64.4236 53.4179 65.0929 53.2652 65.8449 53.2652C66.3738 53.2652 66.8364 53.3478 67.233 53.5129C67.638 53.6699 67.9684 53.8969 68.2246 54.1941V53.3891H69.4145V55.7919H68.3857C67.9479 54.8918 67.2123 54.4418 66.1795 54.4418C65.4523 54.4418 64.874 54.6607 64.4443 55.0983C64.0146 55.5358 63.7998 56.1346 63.7998 56.8942C63.7998 57.6704 64.0064 58.2854 64.4195 58.7396C64.8326 59.1855 65.3863 59.4085 66.0804 59.4085C66.6505 59.4001 67.1174 59.2639 67.4809 58.9997C67.8444 58.7273 68.047 58.3185 68.0883 57.7736H66.7621V56.7084H69.7367ZM70.9124 59.4332H71.718V54.4294H70.9124V53.3891H77.4318V55.7052H76.3287V54.4294H73.4284V56.3244H74.9158V55.5813H75.771V58.0956H74.9282V57.3277H73.4284V59.4209H76.3783V58.0584H77.4938V60.4736H70.9124V59.4332ZM89.9563 58.2814C89.7332 59.0328 89.3117 59.6066 88.692 60.003C88.0806 60.3993 87.3203 60.6015 86.4115 60.6099C85.6513 60.6099 84.9737 60.4572 84.3788 60.1516C83.7922 59.846 83.3293 59.4168 82.9906 58.8635C82.66 58.3102 82.4948 57.6661 82.4948 56.9313C82.4948 56.2046 82.6519 55.5649 82.9658 55.0116C83.2881 54.4583 83.7343 54.029 84.3044 53.7235C84.8745 53.4179 85.5274 53.2652 86.2627 53.2652C86.7833 53.2652 87.2459 53.3478 87.6509 53.5129C88.0559 53.678 88.3822 53.9133 88.6301 54.2189V53.3891H89.7827V55.7671L88.7912 55.7795C88.5516 55.3253 88.2542 54.9909 87.8988 54.7762C87.5518 54.5533 87.1263 54.4418 86.6222 54.4418C85.8949 54.4418 85.3167 54.6731 84.8869 55.1354C84.4572 55.5896 84.2424 56.1799 84.2424 56.9066C84.2424 57.4103 84.3375 57.8519 84.5275 58.2318C84.7258 58.6117 84.9944 58.9047 85.3331 59.1112C85.6802 59.3177 86.0727 59.4209 86.5106 59.4209C87.0395 59.4209 87.4857 59.2846 87.8492 59.0121C88.221 58.7396 88.4854 58.3269 88.6424 57.7736L89.9563 58.2814ZM91.1743 59.4332H91.9799V54.4294H91.1743V53.3891H94.4836V54.4294H93.678V56.3492H96.6154V54.4294H95.8098V53.3891H99.1191V54.4294H98.3135V59.4332H99.1191V60.4736H95.8098V59.4332H96.6154V57.3648H93.678V59.4332H94.4836V60.4736H91.1743V59.4332ZM99.9558 59.4332H100.749L102.596 54.4294H101.865V53.3891H106.24V54.4294H105.509L107.392 59.4332H108.149V60.4736H104.802V59.4332H105.645L105.124 57.885H102.807L102.286 59.4332H103.067V60.4736H99.9558V59.4332ZM104.827 56.8942L104.021 54.4418H103.959L103.116 56.8942H104.827ZM109.016 59.4332H109.834V54.4294H109.016V53.3891H111.804L115.163 58.3185V54.4294H114.296V53.3891H117.146V54.4294H116.341V60.4736H114.63L110.986 55.1107V59.4332H111.854V60.4736H109.016V59.4332ZM117.845 59.4332H118.639L120.485 54.4294H119.754V53.3891H124.129V54.4294H123.398L125.282 59.4332H126.038V60.4736H122.692V59.4332H123.534L123.014 57.885H120.696L120.176 59.4332H120.956V60.4736H117.845V59.4332ZM122.716 56.8942L121.911 54.4418H121.849L121.006 56.8942H122.716ZM126.893 59.4332H127.699V54.3675H126.893V53.3891H130.202V54.3675H129.397V59.4332H131.702V57.4515H132.892V60.4736H126.893V59.4332ZM133.731 59.4332H134.537V54.4294H133.731V53.3891H140.251V55.7052H139.148V54.4294H136.248V56.3244H137.735V55.5813H138.59V58.0956H137.747V57.3277H136.248V59.4209H139.197V58.0584H140.313V60.4736H133.731V59.4332ZM143.039 59.4332H143.895V54.4047H142.395V55.9529H141.255V53.3891H148.208V55.9529H147.08V54.4047H145.593V59.4332H146.46V60.4736H143.039V59.4332ZM152.661 56.1634C153.487 56.3204 154.091 56.5722 154.471 56.919C154.851 57.2574 155.041 57.7571 155.041 58.4176C155.041 59.07 154.826 59.5983 154.397 60.003C153.967 60.3993 153.384 60.5975 152.649 60.5975C152.219 60.5975 151.806 60.5148 151.409 60.3498C151.013 60.1847 150.703 59.9618 150.48 59.6809V60.4736H149.29V58.0708H150.356C150.488 58.525 150.736 58.8923 151.1 59.1731C151.463 59.4456 151.901 59.5819 152.413 59.5819C152.744 59.5819 153 59.5076 153.182 59.3589C153.372 59.202 153.467 58.9833 153.467 58.7025C153.467 58.3805 153.368 58.1492 153.169 58.0089C152.979 57.8603 152.632 57.7364 152.128 57.6373L151.496 57.5135C150.753 57.3648 150.191 57.1131 149.811 56.7579C149.43 56.3947 149.24 55.9117 149.24 55.3088C149.24 54.6812 149.451 54.1817 149.873 53.8102C150.294 53.4386 150.856 53.2528 151.558 53.2528C151.996 53.2528 152.384 53.3231 152.723 53.4634C153.07 53.5956 153.355 53.7854 153.579 54.0331V53.3891H154.694V55.4327H153.665C153.549 55.1023 153.351 54.8258 153.07 54.6028C152.798 54.3799 152.413 54.2684 151.918 54.2684C151.595 54.2684 151.343 54.3427 151.162 54.4914C150.988 54.6317 150.901 54.8258 150.901 55.0735C150.901 55.3543 151.009 55.573 151.224 55.7299C151.447 55.8786 151.798 55.9984 152.277 56.0891L152.661 56.1634Z" fill="#01172F"/>
</svg>
