<svg width="140" height="99" viewBox="0 0 140 99" fill="none" xmlns="http://www.w3.org/2000/svg">
<path d="M70.0122 0L58.9194 7.20531L55.2544 9.52719L52.2247 11.4805L47.8267 14.4104L25.6411 28.8208L28.9689 33.2548L70.0122 6.65096L111.055 33.2548L114.383 28.8208L70.0122 0Z" fill="#EAC435"/>
<path fill-rule="evenodd" clip-rule="evenodd" d="M70.0122 10.8945L36.7339 33.0643V39.4126H55.4499H72.5533H86.9202H103.291V33.0643L70.0122 10.8945ZM64.9301 22.9072H69.2303V27.2045H64.9301V22.9072ZM75.0944 22.9072H70.7941V27.2045H75.0944V22.9072ZM70.7941 28.9624H75.0944V33.2597H70.7941V28.9624ZM69.2303 28.9624H64.9301V33.2597H69.2303V28.9624Z" fill="#EAC435"/>
<path d="M76.1996 75.8965L75.6427 75.609C75.4015 75.4849 75.113 75.165 75.0117 74.9107L74.5985 73.8723C74.527 73.693 74.3892 73.531 74.2205 73.417H75.2651C75.6797 73.417 76.0039 73.0834 76.0039 72.6628V71.8053C76.0039 71.3848 75.6797 71.0219 75.2651 71.0219H64.0884C63.674 71.0219 63.3036 71.3848 63.3036 71.8053V78.9542C63.3036 79.363 63.6645 79.6898 64.0673 79.6898H65.0793C65.0925 80.6024 65.8424 81.3743 66.7628 81.3743C67.6835 81.3743 68.4335 80.6024 68.4466 79.6898H71.764C71.7771 80.6024 72.5271 81.3743 73.4476 81.3743C74.3683 81.3743 75.1181 80.6024 75.1314 79.6898H76.0647C76.4674 79.6898 76.7909 79.363 76.7909 78.9542V76.8774C76.7907 76.4987 76.5323 76.0678 76.1996 75.8965ZM70.4968 75.8691H65.2143V73.1888H70.4968V75.8691ZM72.014 75.8703V74.1012H73.7981L74.2813 75.865L72.014 75.8703Z" fill="#ECF8F8"/>
<path d="M70.0122 98.109L81.105 90.9144L84.77 88.5959L87.7998 86.6453L92.1978 83.7197L114.383 69.3305L111.055 64.903L70.0122 91.4678L28.9689 64.903L25.6411 69.3305L70.0122 98.109Z" fill="#EAC435"/>
<path d="M1 38.5156H139V60.5878H105.477H69.8045H35.1091H1V38.5156Z" stroke="#EAC435" stroke-width="2"/>
<path d="M5.51474 51.5515H6.21354V47.2113H5.51474V46.3089H8.38518V47.2113H7.68638V48.8765H10.2343V47.2113H9.53551V46.3089H12.4059V47.2113H11.7071V51.5515H12.4059V52.454H9.53551V51.5515H10.2343V49.7574H7.68638V51.5515H8.38518V52.454H5.51474V51.5515ZM13.4112 51.5515H14.11V47.2113H13.4112V46.3089H16.2924V47.2113H15.5829V51.5515H16.2924V52.454H13.4112V51.5515ZM17.6273 47.2113H16.993V46.3089H19.9172V47.2113H19.1646L20.573 50.8425L21.9491 47.2113H21.2073V46.3089H23.8197V47.2113H23.1961L21.0245 52.454H19.9387L17.6273 47.2113ZM24.4649 51.5515H25.1637V47.2113H24.4649V46.3089H30.1198V48.3179H29.163V47.2113H26.6473V48.855H27.9374V48.2104H28.6792V50.3913H27.9481V49.7252H26.6473V51.5408H29.206V50.3591H30.1735V52.454H24.4649V51.5515ZM31.1947 51.5515H31.8935V47.2113H31.1947V46.3089H34.7424C35.4805 46.3089 36.061 46.4521 36.484 46.7386C36.914 47.0252 37.1291 47.4619 37.1291 48.0493C37.1291 48.923 36.6703 49.4639 35.753 49.6715L36.9033 51.5408H37.6343V52.454H35.839L34.3339 49.8434H33.7748V48.9195H34.6026C34.9609 48.9195 35.219 48.8408 35.3767 48.6831C35.5415 48.5185 35.624 48.2999 35.624 48.0278C35.624 47.7842 35.545 47.5873 35.3874 47.4369C35.2297 47.2865 34.9967 47.2113 34.6886 47.2113H33.3663V51.5515H34.0436V52.454H31.1947V51.5515ZM38.4494 51.5515H39.159V47.2113H38.4494V46.3089H40.8684L43.7818 50.5847V47.2113H43.0292V46.3089H45.5019V47.2113H44.8031V52.454H43.3195L40.1588 47.8022V51.5515H40.9113V52.454H38.4494V51.5515ZM46.1082 51.5515H46.7963L48.3981 47.2113H47.7639V46.3089H51.5589V47.2113H50.9246L52.5587 51.5515H53.2145V52.454H50.3118V51.5515H51.0428L50.5913 50.2087H48.5809L48.1294 51.5515H48.8067V52.454H46.1082V51.5515ZM50.3333 49.3492L49.6345 47.2221H49.5807L48.8497 49.3492H50.3333ZM60.6213 49.1881V49.5856C60.6213 50.5382 60.3275 51.2722 59.7398 51.7879C59.1592 52.3036 58.3744 52.5614 57.3853 52.5614C56.6901 52.5614 56.0773 52.429 55.547 52.1639C55.0237 51.8988 54.6189 51.5265 54.3321 51.0466C54.0526 50.5597 53.9129 50.0045 53.9129 49.3814C53.9129 48.7583 54.0526 48.2069 54.3321 47.727C54.6117 47.24 55.0022 46.864 55.504 46.599C56.0128 46.3339 56.5933 46.2015 57.2456 46.2015C57.7043 46.2015 58.1056 46.2732 58.4497 46.4163C58.8009 46.5525 59.0875 46.7494 59.3097 47.0072V46.3089H60.3418V48.3931H59.4495C59.0697 47.6123 58.4317 47.2221 57.5359 47.2221C56.9051 47.2221 56.4035 47.4119 56.0308 47.7915C55.658 48.171 55.4717 48.6904 55.4717 49.3492C55.4717 50.0225 55.651 50.556 56.0093 50.9499C56.3675 51.3367 56.8478 51.5301 57.4499 51.5301C57.9444 51.5228 58.3494 51.4047 58.6647 51.1755C58.98 50.9392 59.1557 50.5847 59.1915 50.112H58.0411V49.1881H60.6213ZM61.6411 51.5515H62.3399V47.2113H61.6411V46.3089H67.2959V48.3179H66.3391V47.2113H63.8235V48.855H65.1135V48.2104H65.8553V50.3913H65.1243V49.7252H63.8235V51.5408H66.3821V50.3591H67.3497V52.454H61.6411V51.5515ZM78.1594 50.5524C77.9659 51.2042 77.6004 51.7019 77.0629 52.0457C76.5326 52.3895 75.873 52.5649 75.0847 52.5721C74.4254 52.5721 73.8376 52.4397 73.3216 52.1746C72.8128 51.9096 72.4113 51.5373 72.1175 51.0574C71.8308 50.5774 71.6875 50.0188 71.6875 49.3814C71.6875 48.7511 71.8237 48.1962 72.096 47.7163C72.3755 47.2363 72.7626 46.864 73.2571 46.599C73.7516 46.3339 74.3179 46.2015 74.9557 46.2015C75.4072 46.2015 75.8085 46.2732 76.1598 46.4163C76.5111 46.5595 76.7941 46.7636 77.0091 47.0287V46.3089H78.0089V48.3716L77.1489 48.3823C76.9411 47.9883 76.6831 47.6983 76.3748 47.5121C76.0738 47.3188 75.7047 47.2221 75.2675 47.2221C74.6367 47.2221 74.1351 47.4227 73.7624 47.8237C73.3896 48.2177 73.2034 48.7296 73.2034 49.36C73.2034 49.7969 73.2858 50.1799 73.4506 50.5095C73.6226 50.839 73.8556 51.0931 74.1494 51.2722C74.4504 51.4513 74.7909 51.5408 75.1707 51.5408C75.6295 51.5408 76.0165 51.4226 76.3318 51.1863C76.6543 50.9499 76.8836 50.5919 77.0199 50.112L78.1594 50.5524ZM79.2159 51.5515H79.9147V47.2113H79.2159V46.3089H82.0864V47.2113H81.3876V48.8765H83.9355V47.2113H83.2367V46.3089H86.1071V47.2113H85.4083V51.5515H86.1071V52.454H83.2367V51.5515H83.9355V49.7574H81.3876V51.5515H82.0864V52.454H79.2159V51.5515ZM86.8329 51.5515H87.5209L89.1228 47.2113H88.4885V46.3089H92.2835V47.2113H91.6492L93.2833 51.5515H93.9391V52.454H91.0364V51.5515H91.7675L91.316 50.2087H89.3056L88.854 51.5515H89.5313V52.454H86.8329V51.5515ZM91.0579 49.3492L90.3591 47.2221H90.3054L89.5743 49.3492H91.0579ZM94.6913 51.5515H95.4008V47.2113H94.6913V46.3089H97.1102L100.024 50.5847V47.2113H99.2711V46.3089H101.744V47.2113H101.045V52.454H99.5614L96.4007 47.8022V51.5515H97.1532V52.454H94.6913V51.5515ZM102.35 51.5515H103.038L104.64 47.2113H104.006V46.3089H107.801V47.2113H107.166L108.801 51.5515H109.456V52.454H106.554V51.5515H107.285L106.833 50.2087H104.823L104.371 51.5515H105.049V52.454H102.35V51.5515ZM106.575 49.3492L105.876 47.2221H105.823L105.092 49.3492H106.575ZM110.198 51.5515H110.897V47.1576H110.198V46.3089H113.068V47.1576H112.369V51.5515H114.369V49.8326H115.401V52.454H110.198V51.5515ZM116.129 51.5515H116.828V47.2113H116.129V46.3089H121.784V48.3179H120.827V47.2113H118.312V48.855H119.602V48.2104H120.344V50.3913H119.613V49.7252H118.312V51.5408H120.87V50.3591H121.838V52.454H116.129V51.5515ZM124.203 51.5515H124.945V47.1898H123.644V48.5327H122.655V46.3089H128.686V48.5327H127.708V47.1898H126.418V51.5515H127.17V52.454H124.203V51.5515ZM132.549 48.7154C133.265 48.8515 133.789 49.0699 134.118 49.3707C134.448 49.6643 134.613 50.0977 134.613 50.6706C134.613 51.2365 134.426 51.6947 134.054 52.0457C133.681 52.3895 133.176 52.5614 132.538 52.5614C132.165 52.5614 131.807 52.4897 131.463 52.3465C131.119 52.2034 130.85 52.01 130.657 51.7664V52.454H129.625V50.3698H130.549C130.664 50.7638 130.879 51.0824 131.194 51.3259C131.51 51.5623 131.889 51.6805 132.334 51.6805C132.62 51.6805 132.843 51.616 133 51.4871C133.165 51.3509 133.248 51.1613 133.248 50.9177C133.248 50.6384 133.162 50.4378 132.99 50.3161C132.825 50.1872 132.524 50.0797 132.087 49.9938L131.538 49.8864C130.893 49.7574 130.406 49.5391 130.076 49.231C129.746 48.916 129.582 48.497 129.582 47.9741C129.582 47.4297 129.764 46.9965 130.13 46.6742C130.495 46.3519 130.983 46.1907 131.592 46.1907C131.972 46.1907 132.309 46.2517 132.603 46.3734C132.904 46.488 133.151 46.6527 133.344 46.8675V46.3089H134.312V48.0815H133.42C133.319 47.795 133.147 47.5551 132.904 47.3617C132.667 47.1684 132.334 47.0717 131.904 47.0717C131.624 47.0717 131.406 47.1361 131.248 47.265C131.097 47.3867 131.022 47.5551 131.022 47.77C131.022 48.0136 131.115 48.2032 131.302 48.3394C131.495 48.4683 131.8 48.5722 132.216 48.6509L132.549 48.7154Z" fill="#ECF8F8"/>
</svg>
