<svg width="56" height="56" viewBox="0 0 56 56" fill="none" xmlns="http://www.w3.org/2000/svg">
<mask id="path-2-inside-1" fill="white">
<path d="M11.9977 16.187C11.7037 16.187 11.4266 16.2377 11.1644 16.3421L16.4163 21.749L21.7264 27.2529L21.8233 27.3692L21.9784 27.5242L22.1334 27.6793L22.4435 28.0087L26.9977 32.6793C27.0736 32.7264 27.2933 32.9299 27.465 33.0158C27.6861 33.1263 27.9258 33.2282 28.1729 33.237C28.4395 33.2465 28.712 33.1702 28.9519 33.0535C29.1316 32.966 29.2115 32.8408 29.4202 32.6793L34.6915 27.2335L40.021 21.749L45.1567 16.4583C44.827 16.2797 44.4618 16.187 44.0714 16.187H11.9977ZM10.3892 16.8459C9.82913 17.3766 9.47835 18.1744 9.47835 19.0746V36.8265C9.47835 37.5554 9.71246 38.2176 10.0985 38.7258L10.8349 38.0281L16.3194 32.6986L21.1838 27.9893L21.0869 27.8731L15.7574 22.3886L10.428 16.8847L10.3892 16.8459ZM45.8543 17.0203L40.6605 22.3886L35.3504 27.8731L35.2535 27.97L40.3117 32.8731L45.7962 38.2025L46.1256 38.5126C46.4209 38.0388 46.5908 37.4551 46.5908 36.8265V19.0746C46.5908 18.272 46.3126 17.5441 45.8543 17.0203ZM21.8039 28.6289L16.959 33.3382L11.4551 38.6676L10.7574 39.3459C11.1252 39.5828 11.5438 39.7335 11.9977 39.7335H44.0714C44.6171 39.7335 45.1121 39.5236 45.5249 39.1909L45.176 38.8421L39.6722 33.5126L34.614 28.6289L30.0597 33.3188C29.8133 33.4822 29.6485 33.6635 29.4079 33.7748C29.0205 33.9539 28.596 34.1054 28.1693 34.0989C27.7414 34.0923 27.3219 33.9249 26.9379 33.736C26.7451 33.6412 26.6424 33.547 26.4163 33.3576L21.8039 28.6289Z"/>
</mask>
<path d="M11.9977 16.187C11.7037 16.187 11.4266 16.2377 11.1644 16.3421L16.4163 21.749L21.7264 27.2529L21.8233 27.3692L21.9784 27.5242L22.1334 27.6793L22.4435 28.0087L26.9977 32.6793C27.0736 32.7264 27.2933 32.9299 27.465 33.0158C27.6861 33.1263 27.9258 33.2282 28.1729 33.237C28.4395 33.2465 28.712 33.1702 28.9519 33.0535C29.1316 32.966 29.2115 32.8408 29.4202 32.6793L34.6915 27.2335L40.021 21.749L45.1567 16.4583C44.827 16.2797 44.4618 16.187 44.0714 16.187H11.9977ZM10.3892 16.8459C9.82913 17.3766 9.47835 18.1744 9.47835 19.0746V36.8265C9.47835 37.5554 9.71246 38.2176 10.0985 38.7258L10.8349 38.0281L16.3194 32.6986L21.1838 27.9893L21.0869 27.8731L15.7574 22.3886L10.428 16.8847L10.3892 16.8459ZM45.8543 17.0203L40.6605 22.3886L35.3504 27.8731L35.2535 27.97L40.3117 32.8731L45.7962 38.2025L46.1256 38.5126C46.4209 38.0388 46.5908 37.4551 46.5908 36.8265V19.0746C46.5908 18.272 46.3126 17.5441 45.8543 17.0203ZM21.8039 28.6289L16.959 33.3382L11.4551 38.6676L10.7574 39.3459C11.1252 39.5828 11.5438 39.7335 11.9977 39.7335H44.0714C44.6171 39.7335 45.1121 39.5236 45.5249 39.1909L45.176 38.8421L39.6722 33.5126L34.614 28.6289L30.0597 33.3188C29.8133 33.4822 29.6485 33.6635 29.4079 33.7748C29.0205 33.9539 28.596 34.1054 28.1693 34.0989C27.7414 34.0923 27.3219 33.9249 26.9379 33.736C26.7451 33.6412 26.6424 33.547 26.4163 33.3576L21.8039 28.6289Z" fill="white"/>
<path d="M11.1644 16.3421L-15.4495 -50.5586L-115.523 -10.7481L-40.4824 66.5079L11.1644 16.3421ZM16.4163 21.749L68.2321 -28.2422L68.1477 -28.3297L68.0631 -28.4168L16.4163 21.749ZM21.7264 27.2529L77.0384 -18.8403L75.3612 -20.853L73.5422 -22.7384L21.7264 27.2529ZM21.8233 27.3692L-33.4887 73.4624L-31.3978 75.9715L-29.0883 78.2809L21.8233 27.3692ZM22.1334 27.6793L74.5638 -21.667L73.8163 -22.4612L73.045 -23.2325L22.1334 27.6793ZM22.4435 28.0087L-29.9869 77.355L-29.5505 77.8187L-29.1059 78.2747L22.4435 28.0087ZM26.9977 32.6793L-24.5516 82.9452L-18.443 89.2098L-11.0117 93.8289L26.9977 32.6793ZM27.465 33.0158L-4.72769 97.4179L-4.72695 97.4182L27.465 33.0158ZM28.1729 33.237L30.7503 -38.7169L30.7466 -38.717L28.1729 33.237ZM28.9519 33.0535L60.4486 97.7988L60.4511 97.7976L28.9519 33.0535ZM29.4202 32.6793L73.4811 89.6234L77.5635 86.4646L81.1536 82.7557L29.4202 32.6793ZM34.6915 27.2335L-16.9447 -22.9431L-16.9934 -22.8931L-17.0419 -22.843L34.6915 27.2335ZM40.021 21.749L91.6573 71.9257L91.6707 71.9119L91.684 71.8981L40.021 21.749ZM45.1567 16.4583L96.8197 66.6074L163.006 -1.57702L79.457 -46.8464L45.1567 16.4583ZM10.3892 16.8459L61.301 -34.0657L11.7427 -83.6241L-39.1326 -35.4187L10.3892 16.8459ZM10.0985 38.7258L-47.2341 82.28L1.33237 146.211L59.6161 90.9944L10.0985 38.7258ZM10.8349 38.0281L60.3526 90.2967L60.6841 89.9826L61.0115 89.6644L10.8349 38.0281ZM16.3194 32.6986L-33.7612 -19.0308L-33.8092 -18.9843L-33.8572 -18.9377L16.3194 32.6986ZM21.1838 27.9893L71.2644 79.7187L119.278 33.2352L76.4958 -18.1039L21.1838 27.9893ZM21.0869 27.8731L76.3989 -18.2202L74.639 -20.332L72.7232 -22.3036L21.0869 27.8731ZM15.7574 22.3886L-35.9672 72.4741L-35.9231 72.5197L-35.8789 72.5652L15.7574 22.3886ZM10.428 16.8847L62.1526 -33.2008L61.7495 -33.6172L61.3397 -34.0269L10.428 16.8847ZM45.8543 17.0203L100.04 -30.3921L48.5152 -89.2771L-5.89106 -33.0438L45.8543 17.0203ZM40.6605 22.3886L92.3881 72.4711L92.397 72.4619L92.4059 72.4527L40.6605 22.3886ZM35.3504 27.8731L86.2625 78.7844L86.6736 78.3733L87.078 77.9556L35.3504 27.8731ZM35.2535 27.97L-15.6585 -22.9414L-67.3681 28.7689L-14.8596 79.6678L35.2535 27.97ZM40.3117 32.8731L90.4883 -18.7632L90.4566 -18.794L90.4249 -18.8248L40.3117 32.8731ZM45.7962 38.2025L-4.38045 89.8388L-3.96837 90.2392L-3.54996 90.633L45.7962 38.2025ZM46.1256 38.5126L-3.22051 90.9431L60.7591 151.159L107.23 76.5949L46.1256 38.5126ZM21.8039 28.6289L73.3454 -21.6452L23.1593 -73.0965L-28.3798 -23.0005L21.8039 28.6289ZM16.959 33.3382L67.0445 85.0629L67.0936 85.0152L67.1427 84.9675L16.959 33.3382ZM11.4551 38.6676L-38.6304 -13.057L-38.6825 -13.0066L-38.7346 -12.956L11.4551 38.6676ZM10.7574 39.3459L-39.4322 -12.2777L-104.361 50.8476L-28.2265 99.879L10.7574 39.3459ZM45.5249 39.1909L90.7061 95.2503L153.112 44.9542L96.4365 -11.7209L45.5249 39.1909ZM45.176 38.8421L96.0876 -12.0697L95.6779 -12.4795L95.2615 -12.8826L45.176 38.8421ZM39.6722 33.5126L89.7577 -18.2121L89.7203 -18.2482L89.683 -18.2843L39.6722 33.5126ZM34.614 28.6289L84.6248 -23.168L32.9763 -73.0356L-17.0392 -21.5303L34.614 28.6289ZM30.0597 33.3188L69.8437 93.3291L76.309 89.0429L81.713 83.478L30.0597 33.3188ZM29.4079 33.7748L-0.812216 -31.5762L-0.813144 -31.5758L29.4079 33.7748ZM28.1693 34.0989L27.0632 106.09L27.0665 106.09L28.1693 34.0989ZM26.9379 33.736L-4.84239 98.3426L-4.8422 98.3427L26.9379 33.736ZM26.4163 33.3576L-25.1251 83.6316L-22.5968 86.2237L-19.8211 88.549L26.4163 33.3576ZM11.9977 -55.813C3.19281 -55.813 -6.17568 -54.2479 -15.4495 -50.5586L37.7783 83.2427C29.0289 86.7234 20.2145 88.187 11.9977 88.187V-55.813ZM-40.4824 66.5079L-35.2304 71.9149L68.0631 -28.4168L62.8112 -33.8238L-40.4824 66.5079ZM-35.3994 71.7403L-30.0893 77.2442L73.5422 -22.7384L68.2321 -28.2422L-35.3994 71.7403ZM-33.5856 73.3461L-33.4887 73.4624L77.1353 -18.724L77.0384 -18.8403L-33.5856 73.3461ZM-29.0883 78.2809L-28.9333 78.436L72.89 -23.3875L72.735 -23.5425L-29.0883 78.2809ZM-28.9333 78.436L-28.7783 78.591L73.045 -23.2325L72.89 -23.3875L-28.9333 78.436ZM-30.297 77.0255L-29.9869 77.355L74.8739 -21.3375L74.5638 -21.667L-30.297 77.0255ZM-29.1059 78.2747L-24.5516 82.9452L78.5471 -17.5867L73.9928 -22.2572L-29.1059 78.2747ZM-11.0117 93.8289C-12.5387 92.8798 -13.7391 92.0534 -14.4737 91.5354C-15.2488 90.989 -15.8736 90.5253 -16.2853 90.2152C-17.0629 89.6295 -17.6527 89.159 -17.7926 89.0475C-17.916 88.9492 -18.1411 88.7683 -17.949 88.9225C-17.8681 88.9875 -17.6184 89.188 -17.3014 89.4372C-16.7312 89.8855 -15.4356 90.8938 -13.732 92.0766C-12.8481 92.6903 -11.6803 93.4726 -10.2795 94.3329C-8.90433 95.1774 -7.02446 96.2698 -4.72769 97.4179L59.6577 -31.3864C61.9115 -30.2597 63.747 -29.1925 65.0769 -28.3757C66.4326 -27.5432 67.5545 -26.7912 68.3924 -26.2094C70.0042 -25.0904 71.2078 -24.152 71.6922 -23.7712C71.9663 -23.5557 72.1746 -23.3884 72.2163 -23.3549C72.3692 -23.2321 72.1071 -23.4429 71.9498 -23.5682C71.776 -23.7067 71.1551 -24.2015 70.3503 -24.8077C69.9251 -25.128 69.2876 -25.6011 68.5009 -26.1557C67.7546 -26.6819 66.5436 -27.5154 65.0072 -28.4704L-11.0117 93.8289ZM-4.72695 97.4182C-3.48042 98.0413 8.71627 104.587 25.5992 105.191L30.7466 -38.717C39.5776 -38.4011 46.5993 -36.499 51.0459 -34.9828C55.4076 -33.4956 58.6148 -31.9076 59.6569 -31.3867L-4.72695 97.4182ZM25.5954 105.191C40.7577 105.734 52.827 101.506 60.4486 97.7988L-2.54483 -31.6919C4.59703 -35.1662 16.1213 -39.2409 30.7503 -38.7169L25.5954 105.191ZM60.4511 97.7976C64.8585 95.6533 68.6339 93.2662 71.8031 90.9292C74.7574 88.7507 76.8946 86.8195 77.6659 86.1167C78.0194 85.7947 78.3698 85.4676 78.2499 85.5791C78.2416 85.5868 77.9396 85.8683 77.5511 86.2193C76.6746 87.0112 75.2788 88.2324 73.4811 89.6234L-14.6407 -24.2649C-16.5428 -22.7931 -18.0268 -21.4957 -18.9826 -20.6322C-19.4108 -20.2454 -19.7502 -19.9292 -19.7945 -19.8879C-19.9505 -19.7429 -19.6348 -20.0376 -19.3156 -20.3284C-18.6128 -20.9688 -16.5423 -22.8421 -13.66 -24.9676C-10.5628 -27.2514 -6.86485 -29.5901 -2.5473 -31.6907L60.4511 97.7976ZM81.1536 82.7557L86.425 77.31L-17.0419 -22.843L-22.3132 -17.3972L81.1536 82.7557ZM86.3278 77.4102L91.6573 71.9257L-11.6153 -28.4276L-16.9447 -22.9431L86.3278 77.4102ZM91.684 71.8981L96.8197 66.6074L-6.50638 -33.6908L-11.642 -28.4001L91.684 71.8981ZM79.457 -46.8464C68.3875 -52.8442 56.202 -55.813 44.0714 -55.813V88.187C32.7215 88.187 21.2664 85.4036 10.8563 79.763L79.457 -46.8464ZM44.0714 -55.813H11.9977V88.187H44.0714V-55.813ZM-39.1326 -35.4187C-54.8819 -20.4959 -62.5217 -0.407646 -62.5217 19.0746H81.4783C81.4783 36.7565 74.5401 55.2492 59.911 69.1106L-39.1326 -35.4187ZM-62.5217 19.0746V36.8265H81.4783V19.0746H-62.5217ZM-62.5217 36.8265C-62.5217 52.9893 -57.3138 69.0116 -47.2341 82.28L67.4311 -4.82844C76.7387 7.4236 81.4783 22.1216 81.4783 36.8265H-62.5217ZM59.6161 90.9944L60.3526 90.2967L-38.6827 -14.2405L-39.4191 -13.5428L59.6161 90.9944ZM61.0115 89.6644L66.496 84.3349L-33.8572 -18.9377L-39.3417 -13.6082L61.0115 89.6644ZM66.4001 84.428L71.2644 79.7187L-28.8969 -23.7401L-33.7612 -19.0308L66.4001 84.428ZM76.4958 -18.1039L76.3989 -18.2202L-34.2251 73.9663L-34.1282 74.0826L76.4958 -18.1039ZM72.7232 -22.3036L67.3937 -27.7881L-35.8789 72.5652L-30.5494 78.0497L72.7232 -22.3036ZM67.4821 -27.6969L62.1526 -33.2008L-41.2967 66.9702L-35.9672 72.4741L67.4821 -27.6969ZM61.3397 -34.0269L61.301 -34.0657L-40.5225 67.7576L-40.4838 67.7963L61.3397 -34.0269ZM-5.89106 -33.0438L-11.0849 -27.6755L92.4059 72.4527L97.5997 67.0845L-5.89106 -33.0438ZM-11.067 -27.694L-16.3771 -22.2095L87.078 77.9556L92.3881 72.4711L-11.067 -27.694ZM-15.5616 -23.0383L-15.6585 -22.9414L86.1656 78.8813L86.2625 78.7844L-15.5616 -23.0383ZM-14.8596 79.6678L-9.80151 84.5709L90.4249 -18.8248L85.3667 -23.7279L-14.8596 79.6678ZM-9.86494 84.5093L-4.38045 89.8388L95.9728 -13.4338L90.4883 -18.7632L-9.86494 84.5093ZM-3.54996 90.633L-3.22051 90.9431L95.4718 -13.9179L95.1423 -14.228L-3.54996 90.633ZM107.23 76.5949C114.954 64.2011 118.591 50.3237 118.591 36.8265H-25.4092C-25.4092 24.5865 -22.1124 11.8765 -14.9787 0.430251L107.23 76.5949ZM118.591 36.8265V19.0746H-25.4092V36.8265H118.591ZM118.591 19.0746C118.591 1.84178 112.631 -16.0027 100.04 -30.3921L-8.33111 64.4328C-20.0053 51.0909 -25.4092 34.7021 -25.4092 19.0746H118.591ZM-28.3798 -23.0005L-33.2248 -18.2912L67.1427 84.9675L71.9877 80.2582L-28.3798 -23.0005ZM-33.1265 -18.3865L-38.6304 -13.057L61.5406 90.3923L67.0445 85.0629L-33.1265 -18.3865ZM-38.7346 -12.956L-39.4322 -12.2777L60.9471 90.9696L61.6447 90.2913L-38.7346 -12.956ZM-28.2265 99.879C-18.6752 106.03 -4.92405 111.734 11.9977 111.734V-32.2665C28.0117 -32.2665 40.9256 -26.8646 49.7413 -21.1871L-28.2265 99.879ZM11.9977 111.734H44.0714V-32.2665H11.9977V111.734ZM44.0714 111.734C63.9241 111.734 79.9218 103.942 90.7061 95.2503L0.343622 -16.8685C10.3023 -24.8947 25.3101 -32.2665 44.0714 -32.2665V111.734ZM96.4365 -11.7209L96.0876 -12.0697L-5.73559 89.7538L-5.38675 90.1026L96.4365 -11.7209ZM95.2615 -12.8826L89.7577 -18.2121L-10.4133 85.2373L-4.90947 90.5667L95.2615 -12.8826ZM89.683 -18.2843L84.6248 -23.168L-15.3968 80.4258L-10.3387 85.3095L89.683 -18.2843ZM-17.0392 -21.5303L-21.5935 -16.8404L81.713 83.478L86.2673 78.788L-17.0392 -21.5303ZM-9.72418 -26.6915C-11.7959 -25.3181 -13.375 -24.1189 -14.1943 -23.4845C-14.5834 -23.1831 -14.8986 -22.9326 -14.9318 -22.9063C-15.0604 -22.8043 -14.8158 -22.9989 -14.5616 -23.1973C-13.5999 -23.9477 -8.42723 -28.0548 -0.812216 -31.5762L59.6279 99.1257C67.4836 95.493 72.859 91.2396 74.0249 90.3299C74.3301 90.0917 74.6258 89.8565 74.5491 89.9173C74.5471 89.9189 74.5292 89.9331 74.5044 89.9527C74.4789 89.9729 74.4401 90.0036 74.3922 90.0413C74.2976 90.1158 74.1511 90.2307 73.9698 90.3711C73.2582 90.9221 71.7922 92.0374 69.8437 93.3291L-9.72418 -26.6915ZM-0.813144 -31.5758C0.885347 -32.3612 4.36217 -33.8902 9.00546 -35.2182C13.6861 -36.5568 20.6805 -38.0243 29.272 -37.8927L27.0665 106.09C44.105 106.351 56.5997 100.526 59.6289 99.1253L-0.813144 -31.5758ZM29.2753 -37.8926C38.0039 -37.7585 45.0088 -36.0254 49.5571 -34.5643C54.0491 -33.1214 57.3594 -31.539 58.718 -30.8707L-4.8422 98.3427C-2.5741 99.4584 9.87933 105.826 27.0632 106.09L29.2753 -37.8926ZM58.7182 -30.8706C60.6999 -29.8958 62.783 -28.755 64.9212 -27.4208C67.0431 -26.0968 68.7994 -24.8441 70.151 -23.8208C71.3962 -22.878 72.3245 -22.1072 72.6008 -21.8774C72.6873 -21.8055 72.7553 -21.7486 72.7941 -21.7161C72.8143 -21.6991 72.8301 -21.6859 72.8396 -21.6779C72.8445 -21.6738 72.8483 -21.6706 72.8506 -21.6686C72.8518 -21.6676 72.8528 -21.6668 72.8534 -21.6663C72.854 -21.6658 72.8543 -21.6655 72.8543 -21.6655C72.8735 -21.6494 72.7605 -21.7445 72.6538 -21.8339L-19.8211 88.549C-20.3195 88.1315 -19.5514 88.7751 -19.4686 88.844C-19.1034 89.1476 -18.095 89.9834 -16.7717 90.9853C-15.3422 92.0677 -13.5099 93.3736 -11.3075 94.7478C-9.08876 96.1322 -6.92049 97.3204 -4.84239 98.3426L58.7182 -30.8706ZM77.9578 -16.9165L73.3454 -21.6452L-29.7375 78.9029L-25.1251 83.6316L77.9578 -16.9165Z" fill="white" mask="url(#path-2-inside-1)"/>
<rect x="1.99976" y="1.99951" width="52" height="52" rx="13" stroke="white" stroke-width="4"/>
</svg>
