<svg width="56" height="56" viewBox="0 0 56 56" fill="none" xmlns="http://www.w3.org/2000/svg">
<mask id="path-2-inside-1" fill="white">
<path d="M11.998 16.1875C11.7039 16.1875 11.4269 16.2382 11.1647 16.3425L16.4166 21.7495L21.7267 27.2534L21.8236 27.3697L21.9786 27.5247L22.1337 27.6797L22.4438 28.0092L26.998 32.6797C27.0738 32.7269 27.2936 32.9304 27.4653 33.0162C27.6864 33.1268 27.9261 33.2286 28.1732 33.2375C28.4398 33.247 28.7123 33.1707 28.9522 33.0539C29.1319 32.9665 29.2118 32.8413 29.4205 32.6797L34.6918 27.234L40.0213 21.7495L45.1569 16.4588C44.8272 16.2802 44.4621 16.1875 44.0717 16.1875H11.998ZM10.3895 16.8464C9.82942 17.3771 9.47864 18.1749 9.47864 19.0751V36.827C9.47864 37.5559 9.71275 38.2181 10.0988 38.7263L10.8352 38.0286L16.3197 32.6991L21.1841 27.9898L21.0872 27.8735L15.7577 22.3891L10.4283 16.8852L10.3895 16.8464ZM45.8546 17.0208L40.6608 22.3891L35.3507 27.8735L35.2538 27.9704L40.312 32.8735L45.7965 38.203L46.1259 38.5131C46.4212 38.0393 46.591 37.4556 46.591 36.827V19.0751C46.591 18.2724 46.3129 17.5446 45.8546 17.0208ZM21.8042 28.6294L16.9593 33.3387L11.4554 38.6681L10.7577 39.3464C11.1255 39.5833 11.5441 39.734 11.998 39.734H44.0717C44.6174 39.734 45.1124 39.5241 45.5252 39.1914L45.1763 38.8425L39.6724 33.5131L34.6143 28.6294L30.06 33.3193C29.8135 33.4827 29.6488 33.6639 29.4082 33.7752C29.0208 33.9544 28.5963 34.1059 28.1695 34.0994C27.7417 34.0928 27.3221 33.9254 26.9382 33.7365C26.7454 33.6417 26.6427 33.5475 26.4166 33.358L21.8042 28.6294Z"/>
</mask>
<path d="M11.998 16.1875C11.7039 16.1875 11.4269 16.2382 11.1647 16.3425L16.4166 21.7495L21.7267 27.2534L21.8236 27.3697L21.9786 27.5247L22.1337 27.6797L22.4438 28.0092L26.998 32.6797C27.0738 32.7269 27.2936 32.9304 27.4653 33.0162C27.6864 33.1268 27.9261 33.2286 28.1732 33.2375C28.4398 33.247 28.7123 33.1707 28.9522 33.0539C29.1319 32.9665 29.2118 32.8413 29.4205 32.6797L34.6918 27.234L40.0213 21.7495L45.1569 16.4588C44.8272 16.2802 44.4621 16.1875 44.0717 16.1875H11.998ZM10.3895 16.8464C9.82942 17.3771 9.47864 18.1749 9.47864 19.0751V36.827C9.47864 37.5559 9.71275 38.2181 10.0988 38.7263L10.8352 38.0286L16.3197 32.6991L21.1841 27.9898L21.0872 27.8735L15.7577 22.3891L10.4283 16.8852L10.3895 16.8464ZM45.8546 17.0208L40.6608 22.3891L35.3507 27.8735L35.2538 27.9704L40.312 32.8735L45.7965 38.203L46.1259 38.5131C46.4212 38.0393 46.591 37.4556 46.591 36.827V19.0751C46.591 18.2724 46.3129 17.5446 45.8546 17.0208ZM21.8042 28.6294L16.9593 33.3387L11.4554 38.6681L10.7577 39.3464C11.1255 39.5833 11.5441 39.734 11.998 39.734H44.0717C44.6174 39.734 45.1124 39.5241 45.5252 39.1914L45.1763 38.8425L39.6724 33.5131L34.6143 28.6294L30.06 33.3193C29.8135 33.4827 29.6488 33.6639 29.4082 33.7752C29.0208 33.9544 28.5963 34.1059 28.1695 34.0994C27.7417 34.0928 27.3221 33.9254 26.9382 33.7365C26.7454 33.6417 26.6427 33.5475 26.4166 33.358L21.8042 28.6294Z" fill="white"/>
<path d="M11.1647 16.3425L-15.4492 -50.5581L-115.523 -10.7476L-40.4821 66.5084L11.1647 16.3425ZM16.4166 21.7495L68.2324 -28.2418L68.148 -28.3292L68.0634 -28.4163L16.4166 21.7495ZM21.7267 27.2534L77.0387 -18.8398L75.3615 -20.8525L73.5425 -22.7379L21.7267 27.2534ZM21.8236 27.3697L-33.4884 73.4629L-31.3975 75.9719L-29.088 78.2814L21.8236 27.3697ZM22.1337 27.6797L74.5641 -21.6665L73.8166 -22.4607L73.0453 -23.232L22.1337 27.6797ZM22.4438 28.0092L-29.9867 77.3555L-29.5502 77.8192L-29.1056 78.2752L22.4438 28.0092ZM26.998 32.6797L-24.5513 82.9457L-18.4427 89.2103L-11.0114 93.8294L26.998 32.6797ZM27.4653 33.0162L-4.7274 97.4184L-4.72666 97.4187L27.4653 33.0162ZM28.1732 33.2375L30.7506 -38.7164L30.7469 -38.7165L28.1732 33.2375ZM28.9522 33.0539L60.4489 97.7993L60.4514 97.7981L28.9522 33.0539ZM29.4205 32.6797L73.4814 89.6239L77.5638 86.4651L81.1539 82.7562L29.4205 32.6797ZM34.6918 27.234L-16.9445 -22.9426L-16.9931 -22.8926L-17.0416 -22.8425L34.6918 27.234ZM40.0213 21.7495L91.6576 71.9262L91.6709 71.9124L91.6843 71.8986L40.0213 21.7495ZM45.1569 16.4588L96.82 66.6079L163.006 -1.57654L79.4573 -46.8459L45.1569 16.4588ZM10.3895 16.8464L61.3012 -34.0652L11.743 -83.6236L-39.1323 -35.4182L10.3895 16.8464ZM10.0988 38.7263L-47.2338 82.2805L1.33266 146.211L59.6164 90.9949L10.0988 38.7263ZM10.8352 38.0286L60.3528 90.2972L60.6843 89.9831L61.0118 89.6649L10.8352 38.0286ZM16.3197 32.6991L-33.7609 -19.0303L-33.8089 -18.9838L-33.8569 -18.9372L16.3197 32.6991ZM21.1841 27.9898L71.2647 79.7192L119.279 33.2357L76.496 -18.1034L21.1841 27.9898ZM21.0872 27.8735L76.3991 -18.2197L74.6393 -20.3315L72.7235 -22.3031L21.0872 27.8735ZM15.7577 22.3891L-35.967 72.4746L-35.9228 72.5202L-35.8786 72.5657L15.7577 22.3891ZM10.4283 16.8852L62.1529 -33.2003L61.7498 -33.6167L61.34 -34.0265L10.4283 16.8852ZM45.8546 17.0208L100.04 -30.3916L48.5155 -89.2766L-5.89077 -33.0433L45.8546 17.0208ZM40.6608 22.3891L92.3884 72.4716L92.3973 72.4624L92.4062 72.4532L40.6608 22.3891ZM35.3507 27.8735L86.2628 78.7849L86.6739 78.3738L87.0783 77.9561L35.3507 27.8735ZM35.2538 27.9704L-15.6582 -22.9409L-67.3678 28.7694L-14.8594 79.6683L35.2538 27.9704ZM40.312 32.8735L90.4886 -18.7627L90.4569 -18.7935L90.4252 -18.8243L40.312 32.8735ZM45.7965 38.203L-4.38016 89.8393L-3.96809 90.2397L-3.54968 90.6335L45.7965 38.203ZM46.1259 38.5131L-3.22022 90.9436L60.7593 151.159L107.23 76.5954L46.1259 38.5131ZM21.8042 28.6294L73.3457 -21.6447L23.1596 -73.096L-28.3795 -23L21.8042 28.6294ZM16.9593 33.3387L67.0448 85.0633L67.0939 85.0157L67.143 84.968L16.9593 33.3387ZM11.4554 38.6681L-38.6301 -13.0566L-38.6822 -13.0061L-38.7343 -12.9555L11.4554 38.6681ZM10.7577 39.3464L-39.4319 -12.2772L-104.361 50.8481L-28.2262 99.8795L10.7577 39.3464ZM45.5252 39.1914L90.7064 95.2508L153.112 44.9547L96.4368 -11.7204L45.5252 39.1914ZM45.1763 38.8425L96.0879 -12.0692L95.6781 -12.479L95.2618 -12.8821L45.1763 38.8425ZM39.6724 33.5131L89.7579 -18.2116L89.7206 -18.2477L89.6833 -18.2838L39.6724 33.5131ZM34.6143 28.6294L84.6251 -23.1675L32.9766 -73.0351L-17.0389 -21.5298L34.6143 28.6294ZM30.06 33.3193L69.844 93.3296L76.3093 89.0434L81.7133 83.4785L30.06 33.3193ZM29.4082 33.7752L-0.811928 -31.5757L-0.812856 -31.5753L29.4082 33.7752ZM28.1695 34.0994L27.0635 106.091L27.0668 106.091L28.1695 34.0994ZM26.9382 33.7365L-4.8421 98.3431L-4.84192 98.3432L26.9382 33.7365ZM26.4166 33.358L-25.1248 83.6321L-22.5965 86.2242L-19.8209 88.5495L26.4166 33.358ZM11.998 -55.8125C3.1931 -55.8125 -6.1754 -54.2474 -15.4492 -50.5581L37.7786 83.2432C29.0292 86.7238 20.2148 88.1875 11.998 88.1875V-55.8125ZM-40.4821 66.5084L-35.2301 71.9154L68.0634 -28.4163L62.8114 -33.8233L-40.4821 66.5084ZM-35.3991 71.7408L-30.0891 77.2447L73.5425 -22.7379L68.2324 -28.2418L-35.3991 71.7408ZM-33.5853 73.3466L-33.4884 73.4629L77.1356 -18.7236L77.0387 -18.8398L-33.5853 73.3466ZM-29.088 78.2814L-28.933 78.4364L72.8903 -23.387L72.7353 -23.5421L-29.088 78.2814ZM-28.933 78.4364L-28.778 78.5915L73.0453 -23.232L72.8903 -23.387L-28.933 78.4364ZM-30.2967 77.026L-29.9867 77.3555L74.8742 -21.337L74.5641 -21.6665L-30.2967 77.026ZM-29.1056 78.2752L-24.5513 82.9457L78.5474 -17.5862L73.9931 -22.2567L-29.1056 78.2752ZM-11.0114 93.8294C-12.5384 92.8803 -13.7388 92.0539 -14.4734 91.5359C-15.2485 90.9895 -15.8733 90.5257 -16.285 90.2157C-17.0626 89.63 -17.6525 89.1595 -17.7923 89.048C-17.9157 88.9497 -18.1408 88.7688 -17.9487 88.923C-17.8678 88.988 -17.6181 89.1885 -17.3011 89.4377C-16.7309 89.8859 -15.4353 90.8943 -13.7317 92.0771C-12.8478 92.6908 -11.68 93.4731 -10.2792 94.3334C-8.90404 95.1779 -7.02417 96.2703 -4.7274 97.4184L59.6579 -31.3859C61.9118 -30.2592 63.7472 -29.192 65.0772 -28.3752C66.4329 -27.5427 67.5547 -26.7907 68.3927 -26.2089C70.0044 -25.0899 71.2081 -24.1515 71.6925 -23.7707C71.9666 -23.5552 72.1749 -23.3879 72.2166 -23.3544C72.3694 -23.2316 72.1074 -23.4424 71.95 -23.5677C71.7763 -23.7062 71.1554 -24.2011 70.3506 -24.8072C69.9254 -25.1275 69.2879 -25.6006 68.5012 -26.1552C67.7549 -26.6814 66.5439 -27.5149 65.0074 -28.4699L-11.0114 93.8294ZM-4.72666 97.4187C-3.48014 98.0418 8.71656 104.588 25.5995 105.191L30.7469 -38.7165C39.5779 -38.4006 46.5996 -36.4985 51.0462 -34.9823C55.4079 -33.4951 58.615 -31.9072 59.6572 -31.3862L-4.72666 97.4187ZM25.5957 105.191C40.758 105.734 52.8273 101.507 60.4489 97.7993L-2.54454 -31.6914C4.59731 -35.1657 16.1216 -39.2404 30.7506 -38.7164L25.5957 105.191ZM60.4514 97.7981C64.8588 95.6538 68.6342 93.2667 71.8034 90.9297C74.7577 88.7512 76.8949 86.82 77.6662 86.1172C78.0197 85.7952 78.3701 85.4681 78.2502 85.5796C78.2419 85.5873 77.9399 85.8688 77.5514 86.2198C76.6749 87.0117 75.2791 88.2329 73.4814 89.6239L-14.6404 -24.2644C-16.5425 -22.7926 -18.0265 -21.4952 -18.9823 -20.6317C-19.4105 -20.2449 -19.7499 -19.9287 -19.7942 -19.8874C-19.9502 -19.7424 -19.6345 -20.0372 -19.3153 -20.328C-18.6125 -20.9683 -16.542 -22.8417 -13.6597 -24.9671C-10.5626 -27.2509 -6.86456 -29.5896 -2.54701 -31.6902L60.4514 97.7981ZM81.1539 82.7562L86.4252 77.3105L-17.0416 -22.8425L-22.3129 -17.3967L81.1539 82.7562ZM86.3281 77.4106L91.6576 71.9262L-11.615 -28.4271L-16.9445 -22.9426L86.3281 77.4106ZM91.6843 71.8986L96.82 66.6079L-6.50609 -33.6903L-11.6417 -28.3996L91.6843 71.8986ZM79.4573 -46.8459C68.3878 -52.8437 56.2023 -55.8125 44.0717 -55.8125V88.1875C32.7218 88.1875 21.2667 85.404 10.8566 79.7635L79.4573 -46.8459ZM44.0717 -55.8125H11.998V88.1875H44.0717V-55.8125ZM-39.1323 -35.4182C-54.8816 -20.4955 -62.5214 -0.407159 -62.5214 19.0751H81.4786C81.4786 36.7569 74.5404 55.2496 59.9113 69.111L-39.1323 -35.4182ZM-62.5214 19.0751V36.827H81.4786V19.0751H-62.5214ZM-62.5214 36.827C-62.5214 52.9898 -57.3135 69.0121 -47.2338 82.2805L67.4314 -4.82795C76.739 7.42409 81.4786 22.1221 81.4786 36.827H-62.5214ZM59.6164 90.9949L60.3528 90.2972L-38.6824 -14.24L-39.4188 -13.5423L59.6164 90.9949ZM61.0118 89.6649L66.4963 84.3354L-33.8569 -18.9372L-39.3414 -13.6077L61.0118 89.6649ZM66.4004 84.4285L71.2647 79.7192L-28.8966 -23.7396L-33.7609 -19.0303L66.4004 84.4285ZM76.496 -18.1034L76.3991 -18.2197L-34.2248 73.9668L-34.1279 74.083L76.496 -18.1034ZM72.7235 -22.3031L67.394 -27.7876L-35.8786 72.5657L-30.5491 78.0502L72.7235 -22.3031ZM67.4824 -27.6965L62.1529 -33.2003L-41.2964 66.9707L-35.967 72.4746L67.4824 -27.6965ZM61.34 -34.0265L61.3012 -34.0652L-40.5223 67.758L-40.4835 67.7968L61.34 -34.0265ZM-5.89077 -33.0433L-11.0846 -27.6751L92.4062 72.4532L97.6 67.0849L-5.89077 -33.0433ZM-11.0667 -27.6935L-16.3768 -22.209L87.0783 77.9561L92.3884 72.4716L-11.0667 -27.6935ZM-15.5613 -23.0378L-15.6582 -22.9409L86.1659 78.8818L86.2628 78.7849L-15.5613 -23.0378ZM-14.8594 79.6683L-9.80122 84.5714L90.4252 -18.8243L85.367 -23.7274L-14.8594 79.6683ZM-9.86465 84.5098L-4.38016 89.8393L95.9731 -13.4333L90.4886 -18.7627L-9.86465 84.5098ZM-3.54968 90.6335L-3.22022 90.9436L95.4721 -13.9174L95.1426 -14.2275L-3.54968 90.6335ZM107.23 76.5954C114.955 64.2016 118.591 50.3242 118.591 36.827H-25.409C-25.409 24.587 -22.1121 11.877 -14.9784 0.430739L107.23 76.5954ZM118.591 36.827V19.0751H-25.409V36.827H118.591ZM118.591 19.0751C118.591 1.84227 112.631 -16.0022 100.04 -30.3916L-8.33082 64.4333C-20.005 51.0914 -25.409 34.7026 -25.409 19.0751H118.591ZM-28.3795 -23L-33.2245 -18.2907L67.143 84.968L71.988 80.2587L-28.3795 -23ZM-33.1262 -18.386L-38.6301 -13.0566L61.5409 90.3928L67.0448 85.0633L-33.1262 -18.386ZM-38.7343 -12.9555L-39.4319 -12.2772L60.9474 90.97L61.645 90.2918L-38.7343 -12.9555ZM-28.2262 99.8795C-18.6749 106.031 -4.92376 111.734 11.998 111.734V-32.266C28.0119 -32.266 40.9259 -26.8641 49.7416 -21.1867L-28.2262 99.8795ZM11.998 111.734H44.0717V-32.266H11.998V111.734ZM44.0717 111.734C63.9243 111.734 79.9221 103.942 90.7064 95.2508L0.343911 -16.868C10.3026 -24.8943 25.3104 -32.266 44.0717 -32.266V111.734ZM96.4368 -11.7204L96.0879 -12.0692L-5.7353 89.7543L-5.38646 90.1031L96.4368 -11.7204ZM95.2618 -12.8821L89.7579 -18.2116L-10.4131 85.2378L-4.90918 90.5672L95.2618 -12.8821ZM89.6833 -18.2838L84.6251 -23.1675L-15.3965 80.4263L-10.3384 85.31L89.6833 -18.2838ZM-17.0389 -21.5298L-21.5932 -16.8399L81.7133 83.4785L86.2676 78.7885L-17.0389 -21.5298ZM-9.72389 -26.691C-11.7956 -25.3176 -13.3747 -24.1184 -14.194 -23.484C-14.5831 -23.1826 -14.8984 -22.9321 -14.9316 -22.9058C-15.0601 -22.8038 -14.8155 -22.9984 -14.5613 -23.1968C-13.5997 -23.9472 -8.42694 -28.0543 -0.811928 -31.5757L59.6282 99.1262C67.4839 95.4935 72.8593 91.2401 74.0252 90.3304C74.3304 90.0922 74.6261 89.8569 74.5494 89.9178C74.5474 89.9194 74.5295 89.9336 74.5047 89.9532C74.4792 89.9734 74.4403 90.0041 74.3924 90.0418C74.2979 90.1162 74.1514 90.2312 73.9701 90.3716C73.2585 90.9226 71.7924 92.0379 69.844 93.3296L-9.72389 -26.691ZM-0.812856 -31.5753C0.885636 -32.3607 4.36246 -33.8897 9.00575 -35.2177C13.6863 -36.5563 20.6808 -38.0238 29.2723 -37.8922L27.0668 106.091C44.1053 106.352 56.6 100.527 59.6292 99.1258L-0.812856 -31.5753ZM29.2756 -37.8921C38.0041 -37.758 45.0091 -36.0249 49.5574 -34.5638C54.0493 -33.1209 57.3597 -31.5385 58.7183 -30.8702L-4.84192 98.3432C-2.57381 99.4589 9.87962 105.827 27.0635 106.091L29.2756 -37.8921ZM58.7185 -30.8701C60.7002 -29.8953 62.7833 -28.7545 64.9215 -27.4204C67.0434 -26.0964 68.7997 -24.8436 70.1513 -23.8203C71.3965 -22.8775 72.3248 -22.1067 72.6011 -21.877C72.6876 -21.805 72.7555 -21.7481 72.7944 -21.7156C72.8145 -21.6987 72.8304 -21.6854 72.8399 -21.6774C72.8448 -21.6733 72.8485 -21.6701 72.8509 -21.6681C72.8521 -21.6671 72.8531 -21.6663 72.8537 -21.6658C72.8543 -21.6653 72.8546 -21.665 72.8546 -21.665C72.8738 -21.6489 72.7608 -21.744 72.6541 -21.8334L-19.8209 88.5495C-20.3192 88.132 -19.5511 88.7756 -19.4683 88.8444C-19.1031 89.1481 -18.0947 89.9839 -16.7715 90.9858C-15.3419 92.0682 -13.5096 93.3741 -11.3072 94.7483C-9.08847 96.1327 -6.9202 97.3209 -4.8421 98.3431L58.7185 -30.8701ZM77.9581 -16.916L73.3457 -21.6447L-29.7372 78.9034L-25.1248 83.6321L77.9581 -16.916Z" fill="#EAC435" mask="url(#path-2-inside-1)"/>
<rect x="2" y="2" width="52" height="52" rx="13" stroke="#EAC435" stroke-width="4"/>
</svg>
