<svg width="56" height="56" viewBox="0 0 56 56" fill="none" xmlns="http://www.w3.org/2000/svg">
<g clip-path="url(#clip0)">
<path d="M44.9251 37.1186C44.8261 36.8203 44.1962 36.3809 43.036 35.8014C42.7217 35.6187 42.2738 35.3705 41.6943 35.0556C41.1143 34.7407 40.5878 34.4505 40.1158 34.1853C39.6429 33.9202 39.1998 33.6633 38.7858 33.4151C38.7197 33.3654 38.5125 33.2206 38.1645 32.9798C37.8162 32.7397 37.5224 32.5614 37.2817 32.4452C37.0415 32.3297 36.8052 32.2715 36.5732 32.2715C36.2418 32.2715 35.8279 32.5078 35.3309 32.9798C34.8339 33.4524 34.3781 33.9657 33.964 34.5214C33.5498 35.0768 33.1106 35.5901 32.647 36.0624C32.1828 36.5349 31.8014 36.771 31.5034 36.771C31.3539 36.771 31.1674 36.7293 30.9439 36.647C30.7205 36.5642 30.5505 36.4932 30.4339 36.436C30.3182 36.3776 30.1198 36.262 29.8379 36.0874C29.5555 35.9134 29.3984 35.818 29.3653 35.8014C27.0951 34.5417 25.148 33.0999 23.5238 31.4764C21.9002 29.8519 20.4582 27.905 19.1988 25.6345C19.1823 25.6014 19.0867 25.4439 18.9129 25.1623C18.7387 24.8805 18.6227 24.6819 18.5647 24.5656C18.5067 24.4497 18.4363 24.2797 18.3536 24.0561C18.2709 23.8324 18.2293 23.6461 18.2293 23.4967C18.2293 23.1986 18.4655 22.8173 18.9379 22.3532C19.4101 21.8894 19.924 21.4501 20.4789 21.0361C21.0343 20.6221 21.5476 20.1662 22.0201 19.6693C22.4923 19.172 22.7284 18.758 22.7284 18.4266C22.7284 18.1947 22.6704 17.9584 22.5545 17.7181C22.4386 17.4774 22.2604 17.1837 22.0201 16.8355C21.7796 16.4875 21.6346 16.2805 21.5848 16.2139C21.3365 15.7999 21.0799 15.3567 20.8145 14.8844C20.549 14.4121 20.2592 13.8857 19.9442 13.3058C19.6295 12.7261 19.3811 12.2785 19.1986 11.9637C18.6189 10.8039 18.1799 10.1739 17.8815 10.0748C17.7654 10.0251 17.5913 10 17.3595 10C16.9119 10 16.3278 10.0827 15.607 10.2487C14.8859 10.4143 14.3185 10.5881 13.9042 10.7707C13.0756 11.1185 12.1974 12.1294 11.2693 13.8028C10.4241 15.3603 10.0016 16.9017 10.0016 18.4262C10.0016 18.8732 10.0306 19.3082 10.0886 19.7312C10.1466 20.1537 10.2502 20.6302 10.3995 21.1606C10.5485 21.6908 10.6688 22.0847 10.7597 22.3412C10.8506 22.5979 11.0205 23.0577 11.2692 23.7208C11.5175 24.3837 11.6668 24.7895 11.7165 24.9386C12.2964 26.5627 12.9842 28.0126 13.7795 29.2888C15.0881 31.4098 16.8739 33.6019 19.1358 35.864C21.3979 38.126 23.5895 39.9117 25.7107 41.2208C26.9867 42.016 28.4371 42.7037 30.061 43.284C30.2102 43.3335 30.616 43.4825 31.2786 43.7316C31.9416 43.9801 32.4015 44.15 32.6582 44.2411C32.9149 44.3324 33.3089 44.4527 33.8387 44.602C34.3696 44.7513 34.8457 44.855 35.2682 44.9134C35.691 44.9706 36.1261 45.0001 36.5732 45.0001C38.0976 45.0001 39.6392 44.5773 41.1968 43.7322C42.8701 42.8045 43.8807 41.9261 44.2287 41.0969C44.4117 40.683 44.5851 40.1154 44.7508 39.3943C44.917 38.6736 44.9995 38.0896 44.9995 37.642C45 37.4093 44.975 37.2356 44.9251 37.1186Z" fill="#EAC435"/>
</g>
<rect x="2" y="2" width="52" height="52" rx="13" stroke="#EAC435" stroke-width="4"/>
<defs>
<clipPath id="clip0">
<rect width="35" height="35" fill="white" transform="translate(10 10)"/>
</clipPath>
</defs>
</svg>
